# Tiled2Unity generated file. Do not modify by hand.
# Wavefront file for 'Level3_mesh_0004.obj'

# Vertices (Count = 828)
v -912 -256 0
v -928 -256 0
v -928 -240 0
v -912 -240 0
v -896 -272 0
v -912 -272 0
v -912 -256 0
v -896 -256 0
v -912 -272 0
v -928 -272 0
v -928 -256 0
v -912 -256 0
v -928 -272 0
v -944 -272 0
v -944 -256 0
v -928 -256 0
v -896 -288 0
v -912 -288 0
v -912 -272 0
v -896 -272 0
v -912 -288 0
v -928 -288 0
v -928 -272 0
v -912 -272 0
v -928 -288 0
v -944 -288 0
v -944 -272 0
v -928 -272 0
v -896 -304 0
v -912 -304 0
v -912 -288 0
v -896 -288 0
v -912 -304 0
v -928 -304 0
v -928 -288 0
v -912 -288 0
v -928 -304 0
v -944 -304 0
v -944 -288 0
v -928 -288 0
v -1088 -304 0
v -1104 -304 0
v -1104 -288 0
v -1088 -288 0
v -896 -320 0
v -912 -320 0
v -912 -304 0
v -896 -304 0
v -912 -320 0
v -928 -320 0
v -928 -304 0
v -912 -304 0
v -928 -320 0
v -944 -320 0
v -944 -304 0
v -928 -304 0
v -1008 -320 0
v -1024 -320 0
v -1024 -304 0
v -1008 -304 0
v -1024 -320 0
v -1040 -320 0
v -1040 -304 0
v -1024 -304 0
v -1040 -320 0
v -1056 -320 0
v -1056 -304 0
v -1040 -304 0
v -1072 -320 0
v -1088 -320 0
v -1088 -304 0
v -1072 -304 0
v -1088 -320 0
v -1104 -320 0
v -1104 -304 0
v -1088 -304 0
v -896 -336 0
v -912 -336 0
v -912 -320 0
v -896 -320 0
v -912 -336 0
v -928 -336 0
v -928 -320 0
v -912 -320 0
v -928 -336 0
v -944 -336 0
v -944 -320 0
v -928 -320 0
v -1008 -336 0
v -1024 -336 0
v -1024 -320 0
v -1008 -320 0
v -1024 -336 0
v -1040 -336 0
v -1040 -320 0
v -1024 -320 0
v -1040 -336 0
v -1056 -336 0
v -1056 -320 0
v -1040 -320 0
v -1056 -336 0
v -1072 -336 0
v -1072 -320 0
v -1056 -320 0
v -1072 -336 0
v -1088 -336 0
v -1088 -320 0
v -1072 -320 0
v -1088 -336 0
v -1104 -336 0
v -1104 -320 0
v -1088 -320 0
v -896 -352 0
v -912 -352 0
v -912 -336 0
v -896 -336 0
v -912 -352 0
v -928 -352 0
v -928 -336 0
v -912 -336 0
v -928 -352 0
v -944 -352 0
v -944 -336 0
v -928 -336 0
v -1008 -352 0
v -1024 -352 0
v -1024 -336 0
v -1008 -336 0
v -1024 -352 0
v -1040 -352 0
v -1040 -336 0
v -1024 -336 0
v -1040 -352 0
v -1056 -352 0
v -1056 -336 0
v -1040 -336 0
v -1056 -352 0
v -1072 -352 0
v -1072 -336 0
v -1056 -336 0
v -1072 -352 0
v -1088 -352 0
v -1088 -336 0
v -1072 -336 0
v -1088 -352 0
v -1104 -352 0
v -1104 -336 0
v -1088 -336 0
v -1008 -368 0
v -1024 -368 0
v -1024 -352 0
v -1008 -352 0
v -1024 -368 0
v -1040 -368 0
v -1040 -352 0
v -1024 -352 0
v -1040 -368 0
v -1056 -368 0
v -1056 -352 0
v -1040 -352 0
v -1056 -368 0
v -1072 -368 0
v -1072 -352 0
v -1056 -352 0
v -1072 -368 0
v -1088 -368 0
v -1088 -352 0
v -1072 -352 0
v -1088 -368 0
v -1104 -368 0
v -1104 -352 0
v -1088 -352 0
v -992 -384 0
v -1008 -384 0
v -1008 -368 0
v -992 -368 0
v -1008 -384 0
v -1024 -384 0
v -1024 -368 0
v -1008 -368 0
v -1024 -384 0
v -1040 -384 0
v -1040 -368 0
v -1024 -368 0
v -1040 -384 0
v -1056 -384 0
v -1056 -368 0
v -1040 -368 0
v -1056 -384 0
v -1072 -384 0
v -1072 -368 0
v -1056 -368 0
v -1072 -384 0
v -1088 -384 0
v -1088 -368 0
v -1072 -368 0
v -1088 -384 0
v -1104 -384 0
v -1104 -368 0
v -1088 -368 0
v -784 -400 0
v -800 -400 0
v -800 -384 0
v -784 -384 0
v -800 -400 0
v -816 -400 0
v -816 -384 0
v -800 -384 0
v -816 -400 0
v -832 -400 0
v -832 -384 0
v -816 -384 0
v -832 -400 0
v -848 -400 0
v -848 -384 0
v -832 -384 0
v -848 -400 0
v -864 -400 0
v -864 -384 0
v -848 -384 0
v -864 -400 0
v -880 -400 0
v -880 -384 0
v -864 -384 0
v -880 -400 0
v -896 -400 0
v -896 -384 0
v -880 -384 0
v -896 -400 0
v -912 -400 0
v -912 -384 0
v -896 -384 0
v -912 -400 0
v -928 -400 0
v -928 -384 0
v -912 -384 0
v -928 -400 0
v -944 -400 0
v -944 -384 0
v -928 -384 0
v -944 -400 0
v -960 -400 0
v -960 -384 0
v -944 -384 0
v -960 -400 0
v -976 -400 0
v -976 -384 0
v -960 -384 0
v -976 -400 0
v -992 -400 0
v -992 -384 0
v -976 -384 0
v -992 -400 0
v -1008 -400 0
v -1008 -384 0
v -992 -384 0
v -1008 -400 0
v -1024 -400 0
v -1024 -384 0
v -1008 -384 0
v -1024 -400 0
v -1040 -400 0
v -1040 -384 0
v -1024 -384 0
v -1040 -400 0
v -1056 -400 0
v -1056 -384 0
v -1040 -384 0
v -1056 -400 0
v -1072 -400 0
v -1072 -384 0
v -1056 -384 0
v -1072 -400 0
v -1088 -400 0
v -1088 -384 0
v -1072 -384 0
v -1088 -400 0
v -1104 -400 0
v -1104 -384 0
v -1088 -384 0
v -784 -416 0
v -800 -416 0
v -800 -400 0
v -784 -400 0
v -800 -416 0
v -816 -416 0
v -816 -400 0
v -800 -400 0
v -816 -416 0
v -832 -416 0
v -832 -400 0
v -816 -400 0
v -832 -416 0
v -848 -416 0
v -848 -400 0
v -832 -400 0
v -848 -416 0
v -864 -416 0
v -864 -400 0
v -848 -400 0
v -864 -416 0
v -880 -416 0
v -880 -400 0
v -864 -400 0
v -880 -416 0
v -896 -416 0
v -896 -400 0
v -880 -400 0
v -896 -416 0
v -912 -416 0
v -912 -400 0
v -896 -400 0
v -912 -416 0
v -928 -416 0
v -928 -400 0
v -912 -400 0
v -928 -416 0
v -944 -416 0
v -944 -400 0
v -928 -400 0
v -944 -416 0
v -960 -416 0
v -960 -400 0
v -944 -400 0
v -960 -416 0
v -976 -416 0
v -976 -400 0
v -960 -400 0
v -976 -416 0
v -992 -416 0
v -992 -400 0
v -976 -400 0
v -992 -416 0
v -1008 -416 0
v -1008 -400 0
v -992 -400 0
v -1008 -416 0
v -1024 -416 0
v -1024 -400 0
v -1008 -400 0
v -1024 -416 0
v -1040 -416 0
v -1040 -400 0
v -1024 -400 0
v -1040 -416 0
v -1056 -416 0
v -1056 -400 0
v -1040 -400 0
v -1056 -416 0
v -1072 -416 0
v -1072 -400 0
v -1056 -400 0
v -1072 -416 0
v -1088 -416 0
v -1088 -400 0
v -1072 -400 0
v -1088 -416 0
v -1104 -416 0
v -1104 -400 0
v -1088 -400 0
v -784 -432 0
v -800 -432 0
v -800 -416 0
v -784 -416 0
v -800 -432 0
v -816 -432 0
v -816 -416 0
v -800 -416 0
v -816 -432 0
v -832 -432 0
v -832 -416 0
v -816 -416 0
v -832 -432 0
v -848 -432 0
v -848 -416 0
v -832 -416 0
v -848 -432 0
v -864 -432 0
v -864 -416 0
v -848 -416 0
v -864 -432 0
v -880 -432 0
v -880 -416 0
v -864 -416 0
v -880 -432 0
v -896 -432 0
v -896 -416 0
v -880 -416 0
v -896 -432 0
v -912 -432 0
v -912 -416 0
v -896 -416 0
v -912 -432 0
v -928 -432 0
v -928 -416 0
v -912 -416 0
v -928 -432 0
v -944 -432 0
v -944 -416 0
v -928 -416 0
v -944 -432 0
v -960 -432 0
v -960 -416 0
v -944 -416 0
v -960 -432 0
v -976 -432 0
v -976 -416 0
v -960 -416 0
v -976 -432 0
v -992 -432 0
v -992 -416 0
v -976 -416 0
v -992 -432 0
v -1008 -432 0
v -1008 -416 0
v -992 -416 0
v -1008 -432 0
v -1024 -432 0
v -1024 -416 0
v -1008 -416 0
v -1024 -432 0
v -1040 -432 0
v -1040 -416 0
v -1024 -416 0
v -1040 -432 0
v -1056 -432 0
v -1056 -416 0
v -1040 -416 0
v -1056 -432 0
v -1072 -432 0
v -1072 -416 0
v -1056 -416 0
v -1072 -432 0
v -1088 -432 0
v -1088 -416 0
v -1072 -416 0
v -1088 -432 0
v -1104 -432 0
v -1104 -416 0
v -1088 -416 0
v -784 -448 0
v -800 -448 0
v -800 -432 0
v -784 -432 0
v -800 -448 0
v -816 -448 0
v -816 -432 0
v -800 -432 0
v -816 -448 0
v -832 -448 0
v -832 -432 0
v -816 -432 0
v -832 -448 0
v -848 -448 0
v -848 -432 0
v -832 -432 0
v -848 -448 0
v -864 -448 0
v -864 -432 0
v -848 -432 0
v -864 -448 0
v -880 -448 0
v -880 -432 0
v -864 -432 0
v -880 -448 0
v -896 -448 0
v -896 -432 0
v -880 -432 0
v -896 -448 0
v -912 -448 0
v -912 -432 0
v -896 -432 0
v -912 -448 0
v -928 -448 0
v -928 -432 0
v -912 -432 0
v -928 -448 0
v -944 -448 0
v -944 -432 0
v -928 -432 0
v -944 -448 0
v -960 -448 0
v -960 -432 0
v -944 -432 0
v -960 -448 0
v -976 -448 0
v -976 -432 0
v -960 -432 0
v -976 -448 0
v -992 -448 0
v -992 -432 0
v -976 -432 0
v -992 -448 0
v -1008 -448 0
v -1008 -432 0
v -992 -432 0
v -1008 -448 0
v -1024 -448 0
v -1024 -432 0
v -1008 -432 0
v -1024 -448 0
v -1040 -448 0
v -1040 -432 0
v -1024 -432 0
v -1040 -448 0
v -1056 -448 0
v -1056 -432 0
v -1040 -432 0
v -1056 -448 0
v -1072 -448 0
v -1072 -432 0
v -1056 -432 0
v -1072 -448 0
v -1088 -448 0
v -1088 -432 0
v -1072 -432 0
v -1088 -448 0
v -1104 -448 0
v -1104 -432 0
v -1088 -432 0
v -784 -464 0
v -800 -464 0
v -800 -448 0
v -784 -448 0
v -800 -464 0
v -816 -464 0
v -816 -448 0
v -800 -448 0
v -816 -464 0
v -832 -464 0
v -832 -448 0
v -816 -448 0
v -832 -464 0
v -848 -464 0
v -848 -448 0
v -832 -448 0
v -848 -464 0
v -864 -464 0
v -864 -448 0
v -848 -448 0
v -864 -464 0
v -880 -464 0
v -880 -448 0
v -864 -448 0
v -880 -464 0
v -896 -464 0
v -896 -448 0
v -880 -448 0
v -896 -464 0
v -912 -464 0
v -912 -448 0
v -896 -448 0
v -912 -464 0
v -928 -464 0
v -928 -448 0
v -912 -448 0
v -928 -464 0
v -944 -464 0
v -944 -448 0
v -928 -448 0
v -944 -464 0
v -960 -464 0
v -960 -448 0
v -944 -448 0
v -960 -464 0
v -976 -464 0
v -976 -448 0
v -960 -448 0
v -976 -464 0
v -992 -464 0
v -992 -448 0
v -976 -448 0
v -992 -464 0
v -1008 -464 0
v -1008 -448 0
v -992 -448 0
v -1008 -464 0
v -1024 -464 0
v -1024 -448 0
v -1008 -448 0
v -1024 -464 0
v -1040 -464 0
v -1040 -448 0
v -1024 -448 0
v -1040 -464 0
v -1056 -464 0
v -1056 -448 0
v -1040 -448 0
v -1056 -464 0
v -1072 -464 0
v -1072 -448 0
v -1056 -448 0
v -1072 -464 0
v -1088 -464 0
v -1088 -448 0
v -1072 -448 0
v -1088 -464 0
v -1104 -464 0
v -1104 -448 0
v -1088 -448 0
v -784 -480 0
v -800 -480 0
v -800 -464 0
v -784 -464 0
v -800 -480 0
v -816 -480 0
v -816 -464 0
v -800 -464 0
v -816 -480 0
v -832 -480 0
v -832 -464 0
v -816 -464 0
v -832 -480 0
v -848 -480 0
v -848 -464 0
v -832 -464 0
v -848 -480 0
v -864 -480 0
v -864 -464 0
v -848 -464 0
v -864 -480 0
v -880 -480 0
v -880 -464 0
v -864 -464 0
v -880 -480 0
v -896 -480 0
v -896 -464 0
v -880 -464 0
v -896 -480 0
v -912 -480 0
v -912 -464 0
v -896 -464 0
v -912 -480 0
v -928 -480 0
v -928 -464 0
v -912 -464 0
v -928 -480 0
v -944 -480 0
v -944 -464 0
v -928 -464 0
v -944 -480 0
v -960 -480 0
v -960 -464 0
v -944 -464 0
v -960 -480 0
v -976 -480 0
v -976 -464 0
v -960 -464 0
v -976 -480 0
v -992 -480 0
v -992 -464 0
v -976 -464 0
v -992 -480 0
v -1008 -480 0
v -1008 -464 0
v -992 -464 0
v -1008 -480 0
v -1024 -480 0
v -1024 -464 0
v -1008 -464 0
v -1024 -480 0
v -1040 -480 0
v -1040 -464 0
v -1024 -464 0
v -1040 -480 0
v -1056 -480 0
v -1056 -464 0
v -1040 -464 0
v -1056 -480 0
v -1072 -480 0
v -1072 -464 0
v -1056 -464 0
v -1072 -480 0
v -1088 -480 0
v -1088 -464 0
v -1072 -464 0
v -1088 -480 0
v -1104 -480 0
v -1104 -464 0
v -1088 -464 0
v -784 -496 0
v -800 -496 0
v -800 -480 0
v -784 -480 0
v -800 -496 0
v -816 -496 0
v -816 -480 0
v -800 -480 0
v -816 -496 0
v -832 -496 0
v -832 -480 0
v -816 -480 0
v -832 -496 0
v -848 -496 0
v -848 -480 0
v -832 -480 0
v -848 -496 0
v -864 -496 0
v -864 -480 0
v -848 -480 0
v -864 -496 0
v -880 -496 0
v -880 -480 0
v -864 -480 0
v -880 -496 0
v -896 -496 0
v -896 -480 0
v -880 -480 0
v -896 -496 0
v -912 -496 0
v -912 -480 0
v -896 -480 0
v -912 -496 0
v -928 -496 0
v -928 -480 0
v -912 -480 0
v -928 -496 0
v -944 -496 0
v -944 -480 0
v -928 -480 0
v -944 -496 0
v -960 -496 0
v -960 -480 0
v -944 -480 0
v -960 -496 0
v -976 -496 0
v -976 -480 0
v -960 -480 0
v -976 -496 0
v -992 -496 0
v -992 -480 0
v -976 -480 0
v -992 -496 0
v -1008 -496 0
v -1008 -480 0
v -992 -480 0
v -1008 -496 0
v -1024 -496 0
v -1024 -480 0
v -1008 -480 0
v -1024 -496 0
v -1040 -496 0
v -1040 -480 0
v -1024 -480 0
v -1040 -496 0
v -1056 -496 0
v -1056 -480 0
v -1040 -480 0
v -1056 -496 0
v -1072 -496 0
v -1072 -480 0
v -1056 -480 0
v -1072 -496 0
v -1088 -496 0
v -1088 -480 0
v -1072 -480 0
v -784 -512 0
v -800 -512 0
v -800 -496 0
v -784 -496 0
v -800 -512 0
v -816 -512 0
v -816 -496 0
v -800 -496 0
v -816 -512 0
v -832 -512 0
v -832 -496 0
v -816 -496 0
v -832 -512 0
v -848 -512 0
v -848 -496 0
v -832 -496 0
v -848 -512 0
v -864 -512 0
v -864 -496 0
v -848 -496 0
v -864 -512 0
v -880 -512 0
v -880 -496 0
v -864 -496 0
v -880 -512 0
v -896 -512 0
v -896 -496 0
v -880 -496 0
v -896 -512 0
v -912 -512 0
v -912 -496 0
v -896 -496 0
v -912 -512 0
v -928 -512 0
v -928 -496 0
v -912 -496 0
v -928 -512 0
v -944 -512 0
v -944 -496 0
v -928 -496 0
v -944 -512 0
v -960 -512 0
v -960 -496 0
v -944 -496 0
v -960 -512 0
v -976 -512 0
v -976 -496 0
v -960 -496 0
v -976 -512 0
v -992 -512 0
v -992 -496 0
v -976 -496 0
v -992 -512 0
v -1008 -512 0
v -1008 -496 0
v -992 -496 0
v -1008 -512 0
v -1024 -512 0
v -1024 -496 0
v -1008 -496 0
v -1024 -512 0
v -1040 -512 0
v -1040 -496 0
v -1024 -496 0
v -1040 -512 0
v -1056 -512 0
v -1056 -496 0
v -1040 -496 0
v -1056 -512 0
v -1072 -512 0
v -1072 -496 0
v -1056 -496 0

# Texture cooridinates (Count = 40)
vt 0.3336777 0.3231939
vt 0.3502066 0.3231939
vt 0.3502066 0.3536122
vt 0.3336777 0.3536122
vt 0.3150826 0.3231939
vt 0.3150826 0.3536122
vt 0.2985537 0.3536122
vt 0.2985537 0.3231939
vt 0.3336777 0.3555133
vt 0.3502066 0.3555133
vt 0.3502066 0.3859316
vt 0.3336777 0.3859316
vt 0.2283058 0.2585551
vt 0.2448347 0.2585551
vt 0.2448347 0.2889734
vt 0.2283058 0.2889734
vt 0.3336777 0.3878327
vt 0.3502066 0.3878327
vt 0.3502066 0.418251
vt 0.3336777 0.418251
vt 0.1229339 0.1292776
vt 0.1394628 0.1292776
vt 0.1394628 0.1596958
vt 0.1229339 0.1596958
vt 0.2283058 0.2262357
vt 0.2448347 0.2262357
vt 0.2448347 0.256654
vt 0.2283058 0.256654
vt 0.3150826 0.3878327
vt 0.3150826 0.418251
vt 0.2985537 0.418251
vt 0.2985537 0.3878327
vt 0.3326446 0.3231939
vt 0.3326446 0.3536122
vt 0.3161157 0.3536122
vt 0.3161157 0.3231939
vt 0.2809917 0.3536122
vt 0.2809917 0.3231939
vt 0.2975207 0.3231939
vt 0.2975207 0.3536122

# Normal
vn 0 0 -1

# Mesh description
g Level3_mesh_0004

# Faces
f 1/1/1 2/2/1 3/3/1 4/4/1
f 5/5/1 6/6/1 7/7/1 8/8/1
f 9/9/1 10/10/1 11/11/1 12/12/1
f 13/7/1 14/8/1 15/5/1 16/6/1
f 17/5/1 18/6/1 19/7/1 20/8/1
f 21/9/1 22/10/1 23/11/1 24/12/1
f 25/7/1 26/8/1 27/5/1 28/6/1
f 29/5/1 30/6/1 31/7/1 32/8/1
f 33/1/1 34/2/1 35/3/1 36/4/1
f 37/7/1 38/8/1 39/5/1 40/6/1
f 41/13/1 42/14/1 43/15/1 44/16/1
f 45/5/1 46/6/1 47/7/1 48/8/1
f 49/7/1 50/8/1 51/5/1 52/6/1
f 53/7/1 54/8/1 55/5/1 56/6/1
f 57/5/1 58/6/1 59/7/1 60/8/1
f 61/9/1 62/10/1 63/11/1 64/12/1
f 65/7/1 66/8/1 67/5/1 68/6/1
f 69/13/1 70/14/1 71/15/1 72/16/1
f 73/13/1 74/14/1 75/15/1 76/16/1
f 77/5/1 78/6/1 79/7/1 80/8/1
f 81/7/1 82/8/1 83/5/1 84/6/1
f 85/7/1 86/8/1 87/5/1 88/6/1
f 89/5/1 90/6/1 91/7/1 92/8/1
f 93/9/1 94/10/1 95/11/1 96/12/1
f 97/7/1 98/8/1 99/5/1 100/6/1
f 101/13/1 102/14/1 103/15/1 104/16/1
f 105/13/1 106/14/1 107/15/1 108/16/1
f 109/13/1 110/14/1 111/15/1 112/16/1
f 113/5/1 114/6/1 115/7/1 116/8/1
f 117/9/1 118/10/1 119/11/1 120/12/1
f 121/7/1 122/8/1 123/5/1 124/6/1
f 125/5/1 126/6/1 127/7/1 128/8/1
f 129/1/1 130/2/1 131/3/1 132/4/1
f 133/7/1 134/8/1 135/5/1 136/6/1
f 137/13/1 138/14/1 139/15/1 140/16/1
f 141/13/1 142/14/1 143/15/1 144/16/1
f 145/13/1 146/14/1 147/15/1 148/16/1
f 149/5/1 150/6/1 151/7/1 152/8/1
f 153/7/1 154/8/1 155/5/1 156/6/1
f 157/7/1 158/8/1 159/5/1 160/6/1
f 161/13/1 162/14/1 163/15/1 164/16/1
f 165/13/1 166/14/1 167/15/1 168/16/1
f 169/13/1 170/14/1 171/15/1 172/16/1
f 173/7/1 174/8/1 175/5/1 176/6/1
f 177/5/1 178/6/1 179/7/1 180/8/1
f 181/7/1 182/8/1 183/5/1 184/6/1
f 185/7/1 186/8/1 187/5/1 188/6/1
f 189/13/1 190/14/1 191/15/1 192/16/1
f 193/13/1 194/14/1 195/15/1 196/16/1
f 197/13/1 198/14/1 199/15/1 200/16/1
f 201/5/1 202/6/1 203/7/1 204/8/1
f 205/9/1 206/10/1 207/11/1 208/12/1
f 209/9/1 210/10/1 211/11/1 212/12/1
f 213/9/1 214/10/1 215/11/1 216/12/1
f 217/9/1 218/10/1 219/11/1 220/12/1
f 221/9/1 222/10/1 223/11/1 224/12/1
f 225/9/1 226/10/1 227/11/1 228/12/1
f 229/9/1 230/10/1 231/11/1 232/12/1
f 233/9/1 234/10/1 235/11/1 236/12/1
f 237/9/1 238/10/1 239/11/1 240/12/1
f 241/9/1 242/10/1 243/11/1 244/12/1
f 245/9/1 246/10/1 247/11/1 248/12/1
f 249/9/1 250/10/1 251/11/1 252/12/1
f 253/7/1 254/8/1 255/5/1 256/6/1
f 257/5/1 258/6/1 259/7/1 260/8/1
f 261/9/1 262/10/1 263/11/1 264/12/1
f 265/7/1 266/8/1 267/5/1 268/6/1
f 269/13/1 270/14/1 271/15/1 272/16/1
f 273/13/1 274/14/1 275/15/1 276/16/1
f 277/13/1 278/14/1 279/15/1 280/16/1
f 281/5/1 282/6/1 283/7/1 284/8/1
f 285/9/1 286/10/1 287/11/1 288/12/1
f 289/9/1 290/10/1 291/11/1 292/12/1
f 293/9/1 294/10/1 295/11/1 296/12/1
f 297/9/1 298/10/1 299/11/1 300/12/1
f 301/9/1 302/10/1 303/11/1 304/12/1
f 305/9/1 306/10/1 307/11/1 308/12/1
f 309/9/1 310/10/1 311/11/1 312/12/1
f 313/9/1 314/10/1 315/11/1 316/12/1
f 317/9/1 318/10/1 319/11/1 320/12/1
f 321/9/1 322/10/1 323/11/1 324/12/1
f 325/9/1 326/10/1 327/11/1 328/12/1
f 329/9/1 330/10/1 331/11/1 332/12/1
f 333/7/1 334/8/1 335/5/1 336/6/1
f 337/5/1 338/6/1 339/7/1 340/8/1
f 341/1/1 342/2/1 343/3/1 344/4/1
f 345/7/1 346/8/1 347/5/1 348/6/1
f 349/13/1 350/14/1 351/15/1 352/16/1
f 353/13/1 354/14/1 355/15/1 356/16/1
f 357/13/1 358/14/1 359/15/1 360/16/1
f 361/5/1 362/6/1 363/7/1 364/8/1
f 365/9/1 366/10/1 367/11/1 368/12/1
f 369/9/1 370/10/1 371/11/1 372/12/1
f 373/9/1 374/10/1 375/11/1 376/12/1
f 377/9/1 378/10/1 379/11/1 380/12/1
f 381/9/1 382/10/1 383/11/1 384/12/1
f 385/9/1 386/10/1 387/11/1 388/12/1
f 389/9/1 390/10/1 391/11/1 392/12/1
f 393/9/1 394/10/1 395/11/1 396/12/1
f 397/9/1 398/10/1 399/11/1 400/12/1
f 401/9/1 402/10/1 403/11/1 404/12/1
f 405/9/1 406/10/1 407/11/1 408/12/1
f 409/9/1 410/10/1 411/11/1 412/12/1
f 413/7/1 414/8/1 415/5/1 416/6/1
f 417/5/1 418/6/1 419/7/1 420/8/1
f 421/17/1 422/18/1 423/19/1 424/20/1
f 425/7/1 426/8/1 427/5/1 428/6/1
f 429/13/1 430/14/1 431/15/1 432/16/1
f 433/13/1 434/14/1 435/15/1 436/16/1
f 437/13/1 438/14/1 439/15/1 440/16/1
f 441/5/1 442/6/1 443/7/1 444/8/1
f 445/9/1 446/10/1 447/11/1 448/12/1
f 449/9/1 450/10/1 451/11/1 452/12/1
f 453/9/1 454/10/1 455/11/1 456/12/1
f 457/9/1 458/10/1 459/11/1 460/12/1
f 461/9/1 462/10/1 463/11/1 464/12/1
f 465/9/1 466/10/1 467/11/1 468/12/1
f 469/9/1 470/10/1 471/11/1 472/12/1
f 473/9/1 474/10/1 475/11/1 476/12/1
f 477/9/1 478/10/1 479/11/1 480/12/1
f 481/9/1 482/10/1 483/11/1 484/12/1
f 485/9/1 486/10/1 487/11/1 488/12/1
f 489/9/1 490/10/1 491/11/1 492/12/1
f 493/7/1 494/8/1 495/5/1 496/6/1
f 497/5/1 498/6/1 499/7/1 500/8/1
f 501/9/1 502/10/1 503/11/1 504/12/1
f 505/7/1 506/8/1 507/5/1 508/6/1
f 509/13/1 510/14/1 511/15/1 512/16/1
f 513/13/1 514/14/1 515/15/1 516/16/1
f 517/13/1 518/14/1 519/15/1 520/16/1
f 521/5/1 522/6/1 523/7/1 524/8/1
f 525/9/1 526/10/1 527/11/1 528/12/1
f 529/9/1 530/10/1 531/11/1 532/12/1
f 533/9/1 534/10/1 535/11/1 536/12/1
f 537/9/1 538/10/1 539/11/1 540/12/1
f 541/9/1 542/10/1 543/11/1 544/12/1
f 545/9/1 546/10/1 547/11/1 548/12/1
f 549/9/1 550/10/1 551/11/1 552/12/1
f 553/9/1 554/10/1 555/11/1 556/12/1
f 557/9/1 558/10/1 559/11/1 560/12/1
f 561/9/1 562/10/1 563/11/1 564/12/1
f 565/9/1 566/10/1 567/11/1 568/12/1
f 569/9/1 570/10/1 571/11/1 572/12/1
f 573/7/1 574/8/1 575/5/1 576/6/1
f 577/5/1 578/6/1 579/7/1 580/8/1
f 581/1/1 582/2/1 583/3/1 584/4/1
f 585/7/1 586/8/1 587/5/1 588/6/1
f 589/13/1 590/14/1 591/15/1 592/16/1
f 593/13/1 594/14/1 595/15/1 596/16/1
f 597/13/1 598/14/1 599/15/1 600/16/1
f 601/5/1 602/6/1 603/7/1 604/8/1
f 605/9/1 606/10/1 607/11/1 608/12/1
f 609/9/1 610/10/1 611/11/1 612/12/1
f 613/9/1 614/10/1 615/11/1 616/12/1
f 617/9/1 618/10/1 619/11/1 620/12/1
f 621/9/1 622/10/1 623/11/1 624/12/1
f 625/9/1 626/10/1 627/11/1 628/12/1
f 629/9/1 630/10/1 631/11/1 632/12/1
f 633/9/1 634/10/1 635/11/1 636/12/1
f 637/9/1 638/10/1 639/11/1 640/12/1
f 641/9/1 642/10/1 643/11/1 644/12/1
f 645/9/1 646/10/1 647/11/1 648/12/1
f 649/9/1 650/10/1 651/11/1 652/12/1
f 653/7/1 654/8/1 655/5/1 656/6/1
f 657/5/1 658/6/1 659/7/1 660/8/1
f 661/17/1 662/18/1 663/19/1 664/20/1
f 665/7/1 666/8/1 667/5/1 668/6/1
f 669/13/1 670/14/1 671/15/1 672/16/1
f 673/13/1 674/14/1 675/15/1 676/16/1
f 677/13/1 678/14/1 679/15/1 680/16/1
f 681/5/1 682/6/1 683/7/1 684/8/1
f 685/9/1 686/10/1 687/11/1 688/12/1
f 689/9/1 690/10/1 691/11/1 692/12/1
f 693/9/1 694/10/1 695/11/1 696/12/1
f 697/21/1 698/22/1 699/23/1 700/24/1
f 701/9/1 702/10/1 703/11/1 704/12/1
f 705/9/1 706/10/1 707/11/1 708/12/1
f 709/9/1 710/10/1 711/11/1 712/12/1
f 713/21/1 714/22/1 715/23/1 716/24/1
f 717/9/1 718/10/1 719/11/1 720/12/1
f 721/9/1 722/10/1 723/11/1 724/12/1
f 725/21/1 726/22/1 727/23/1 728/24/1
f 729/9/1 730/10/1 731/11/1 732/12/1
f 733/7/1 734/8/1 735/5/1 736/6/1
f 737/5/1 738/6/1 739/7/1 740/8/1
f 741/21/1 742/22/1 743/23/1 744/24/1
f 745/7/1 746/8/1 747/5/1 748/6/1
f 749/13/1 750/14/1 751/15/1 752/16/1
f 753/25/1 754/26/1 755/27/1 756/28/1
f 757/29/1 758/30/1 759/31/1 760/32/1
f 761/8/1 762/5/1 763/6/1 764/7/1
f 765/8/1 766/5/1 767/6/1 768/7/1
f 769/8/1 770/5/1 771/6/1 772/7/1
f 773/21/1 774/22/1 775/23/1 776/24/1
f 777/8/1 778/5/1 779/6/1 780/7/1
f 781/8/1 782/5/1 783/6/1 784/7/1
f 785/8/1 786/5/1 787/6/1 788/7/1
f 789/21/1 790/22/1 791/23/1 792/24/1
f 793/8/1 794/5/1 795/6/1 796/7/1
f 797/8/1 798/5/1 799/6/1 800/7/1
f 801/21/1 802/22/1 803/23/1 804/24/1
f 805/8/1 806/5/1 807/6/1 808/7/1
f 809/31/1 810/32/1 811/29/1 812/30/1
f 813/33/1 814/34/1 815/35/1 816/36/1
f 817/21/1 818/22/1 819/23/1 820/24/1
f 821/37/1 822/38/1 823/39/1 824/40/1
f 825/25/1 826/26/1 827/27/1 828/28/1

