# Tiled2Unity generated file. Do not modify by hand.
# Wavefront file for 'Level3_mesh_0002.obj'

# Vertices (Count = 788)
v -704 -368 0
v -720 -368 0
v -720 -352 0
v -704 -352 0
v -720 -368 0
v -736 -368 0
v -736 -352 0
v -720 -352 0
v -736 -368 0
v -752 -368 0
v -752 -352 0
v -736 -352 0
v -688 -384 0
v -704 -384 0
v -704 -368 0
v -688 -368 0
v -704 -384 0
v -720 -384 0
v -720 -368 0
v -704 -368 0
v -720 -384 0
v -736 -384 0
v -736 -368 0
v -720 -368 0
v -736 -384 0
v -752 -384 0
v -752 -368 0
v -736 -368 0
v -704 -400 0
v -720 -400 0
v -720 -384 0
v -704 -384 0
v -720 -400 0
v -736 -400 0
v -736 -384 0
v -720 -384 0
v -736 -400 0
v -752 -400 0
v -752 -384 0
v -736 -384 0
v -720 -416 0
v -736 -416 0
v -736 -400 0
v -720 -400 0
v -720 -432 0
v -736 -432 0
v -736 -416 0
v -720 -416 0
v -720 -448 0
v -736 -448 0
v -736 -432 0
v -720 -432 0
v -720 -464 0
v -736 -464 0
v -736 -448 0
v -720 -448 0
v -720 -480 0
v -736 -480 0
v -736 -464 0
v -720 -464 0
v -720 -496 0
v -736 -496 0
v -736 -480 0
v -720 -480 0
v -384 -512 0
v -400 -512 0
v -400 -496 0
v -384 -496 0
v -400 -512 0
v -416 -512 0
v -416 -496 0
v -400 -496 0
v -416 -512 0
v -432 -512 0
v -432 -496 0
v -416 -496 0
v -432 -512 0
v -448 -512 0
v -448 -496 0
v -432 -496 0
v -720 -512 0
v -736 -512 0
v -736 -496 0
v -720 -496 0
v -384 -528 0
v -400 -528 0
v -400 -512 0
v -384 -512 0
v -720 -528 0
v -736 -528 0
v -736 -512 0
v -720 -512 0
v -848 -528 0
v -864 -528 0
v -864 -512 0
v -848 -512 0
v -912 -528 0
v -928 -528 0
v -928 -512 0
v -912 -512 0
v -960 -528 0
v -976 -528 0
v -976 -512 0
v -960 -512 0
v -384 -544 0
v -400 -544 0
v -400 -528 0
v -384 -528 0
v -672 -544 0
v -688 -544 0
v -688 -528 0
v -672 -528 0
v -688 -544 0
v -704 -544 0
v -704 -528 0
v -688 -528 0
v -704 -544 0
v -720 -544 0
v -720 -528 0
v -704 -528 0
v -720 -544 0
v -736 -544 0
v -736 -528 0
v -720 -528 0
v -736 -544 0
v -752 -544 0
v -752 -528 0
v -736 -528 0
v -752 -544 0
v -768 -544 0
v -768 -528 0
v -752 -528 0
v -768 -544 0
v -784 -544 0
v -784 -528 0
v -768 -528 0
v -784 -544 0
v -800 -544 0
v -800 -528 0
v -784 -528 0
v -800 -544 0
v -816 -544 0
v -816 -528 0
v -800 -528 0
v -816 -544 0
v -832 -544 0
v -832 -528 0
v -816 -528 0
v -832 -544 0
v -848 -544 0
v -848 -528 0
v -832 -528 0
v -848 -544 0
v -864 -544 0
v -864 -528 0
v -848 -528 0
v -864 -544 0
v -880 -544 0
v -880 -528 0
v -864 -528 0
v -880 -544 0
v -896 -544 0
v -896 -528 0
v -880 -528 0
v -896 -544 0
v -912 -544 0
v -912 -528 0
v -896 -528 0
v -912 -544 0
v -928 -544 0
v -928 -528 0
v -912 -528 0
v -960 -544 0
v -976 -544 0
v -976 -528 0
v -960 -528 0
v -384 -560 0
v -400 -560 0
v -400 -544 0
v -384 -544 0
v -672 -560 0
v -688 -560 0
v -688 -544 0
v -672 -544 0
v -912 -560 0
v -928 -560 0
v -928 -544 0
v -912 -544 0
v -928 -560 0
v -944 -560 0
v -944 -544 0
v -928 -544 0
v -944 -560 0
v -960 -560 0
v -960 -544 0
v -944 -544 0
v -960 -560 0
v -976 -560 0
v -976 -544 0
v -960 -544 0
v -384 -576 0
v -400 -576 0
v -400 -560 0
v -384 -560 0
v -672 -576 0
v -688 -576 0
v -688 -560 0
v -672 -560 0
v -912 -576 0
v -928 -576 0
v -928 -560 0
v -912 -560 0
v -384 -592 0
v -400 -592 0
v -400 -576 0
v -384 -576 0
v -672 -592 0
v -688 -592 0
v -688 -576 0
v -672 -576 0
v -912 -592 0
v -928 -592 0
v -928 -576 0
v -912 -576 0
v -384 -608 0
v -400 -608 0
v -400 -592 0
v -384 -592 0
v -544 -608 0
v -560 -608 0
v -560 -592 0
v -544 -592 0
v -672 -608 0
v -688 -608 0
v -688 -592 0
v -672 -592 0
v -880 -608 0
v -896 -608 0
v -896 -592 0
v -880 -592 0
v -896 -608 0
v -912 -608 0
v -912 -592 0
v -896 -592 0
v -912 -608 0
v -928 -608 0
v -928 -592 0
v -912 -592 0
v -384 -624 0
v -400 -624 0
v -400 -608 0
v -384 -608 0
v -544 -624 0
v -560 -624 0
v -560 -608 0
v -544 -608 0
v -672 -624 0
v -688 -624 0
v -688 -608 0
v -672 -608 0
v -880 -624 0
v -896 -624 0
v -896 -608 0
v -880 -608 0
v -896 -624 0
v -912 -624 0
v -912 -608 0
v -896 -608 0
v -912 -624 0
v -928 -624 0
v -928 -608 0
v -912 -608 0
v -384 -640 0
v -400 -640 0
v -400 -624 0
v -384 -624 0
v -480 -640 0
v -496 -640 0
v -496 -624 0
v -480 -624 0
v -544 -640 0
v -560 -640 0
v -560 -624 0
v -544 -624 0
v -672 -640 0
v -688 -640 0
v -688 -624 0
v -672 -624 0
v -880 -640 0
v -896 -640 0
v -896 -624 0
v -880 -624 0
v -896 -640 0
v -912 -640 0
v -912 -624 0
v -896 -624 0
v -912 -640 0
v -928 -640 0
v -928 -624 0
v -912 -624 0
v -928 -640 0
v -944 -640 0
v -944 -624 0
v -928 -624 0
v -944 -640 0
v -960 -640 0
v -960 -624 0
v -944 -624 0
v -368 -656 0
v -384 -656 0
v -384 -640 0
v -368 -640 0
v -384 -656 0
v -400 -656 0
v -400 -640 0
v -384 -640 0
v -400 -656 0
v -416 -656 0
v -416 -640 0
v -400 -640 0
v -416 -656 0
v -432 -656 0
v -432 -640 0
v -416 -640 0
v -432 -656 0
v -448 -656 0
v -448 -640 0
v -432 -640 0
v -448 -656 0
v -464 -656 0
v -464 -640 0
v -448 -640 0
v -464 -656 0
v -480 -656 0
v -480 -640 0
v -464 -640 0
v -480 -656 0
v -496 -656 0
v -496 -640 0
v -480 -640 0
v -496 -656 0
v -512 -656 0
v -512 -640 0
v -496 -640 0
v -512 -656 0
v -528 -656 0
v -528 -640 0
v -512 -640 0
v -528 -656 0
v -544 -656 0
v -544 -640 0
v -528 -640 0
v -544 -656 0
v -560 -656 0
v -560 -640 0
v -544 -640 0
v -560 -656 0
v -576 -656 0
v -576 -640 0
v -560 -640 0
v -576 -656 0
v -592 -656 0
v -592 -640 0
v -576 -640 0
v -592 -656 0
v -608 -656 0
v -608 -640 0
v -592 -640 0
v -608 -656 0
v -624 -656 0
v -624 -640 0
v -608 -640 0
v -624 -656 0
v -640 -656 0
v -640 -640 0
v -624 -640 0
v -640 -656 0
v -656 -656 0
v -656 -640 0
v -640 -640 0
v -656 -656 0
v -672 -656 0
v -672 -640 0
v -656 -640 0
v -672 -656 0
v -688 -656 0
v -688 -640 0
v -672 -640 0
v -880 -656 0
v -896 -656 0
v -896 -640 0
v -880 -640 0
v -896 -656 0
v -912 -656 0
v -912 -640 0
v -896 -640 0
v -912 -656 0
v -928 -656 0
v -928 -640 0
v -912 -640 0
v -928 -656 0
v -944 -656 0
v -944 -640 0
v -928 -640 0
v -944 -656 0
v -960 -656 0
v -960 -640 0
v -944 -640 0
v -368 -672 0
v -384 -672 0
v -384 -656 0
v -368 -656 0
v -608 -672 0
v -624 -672 0
v -624 -656 0
v -608 -656 0
v -880 -672 0
v -896 -672 0
v -896 -656 0
v -880 -656 0
v -896 -672 0
v -912 -672 0
v -912 -656 0
v -896 -656 0
v -912 -672 0
v -928 -672 0
v -928 -656 0
v -912 -656 0
v -928 -672 0
v -944 -672 0
v -944 -656 0
v -928 -656 0
v -944 -672 0
v -960 -672 0
v -960 -656 0
v -944 -656 0
v -368 -688 0
v -384 -688 0
v -384 -672 0
v -368 -672 0
v -448 -688 0
v -464 -688 0
v -464 -672 0
v -448 -672 0
v -464 -688 0
v -480 -688 0
v -480 -672 0
v -464 -672 0
v -480 -688 0
v -496 -688 0
v -496 -672 0
v -480 -672 0
v -496 -688 0
v -512 -688 0
v -512 -672 0
v -496 -672 0
v -512 -688 0
v -528 -688 0
v -528 -672 0
v -512 -672 0
v -528 -688 0
v -544 -688 0
v -544 -672 0
v -528 -672 0
v -544 -688 0
v -560 -688 0
v -560 -672 0
v -544 -672 0
v -608 -688 0
v -624 -688 0
v -624 -672 0
v -608 -672 0
v -880 -688 0
v -896 -688 0
v -896 -672 0
v -880 -672 0
v -896 -688 0
v -912 -688 0
v -912 -672 0
v -896 -672 0
v -912 -688 0
v -928 -688 0
v -928 -672 0
v -912 -672 0
v -368 -704 0
v -384 -704 0
v -384 -688 0
v -368 -688 0
v -432 -704 0
v -448 -704 0
v -448 -688 0
v -432 -688 0
v -448 -704 0
v -464 -704 0
v -464 -688 0
v -448 -688 0
v -464 -704 0
v -480 -704 0
v -480 -688 0
v -464 -688 0
v -480 -704 0
v -496 -704 0
v -496 -688 0
v -480 -688 0
v -496 -704 0
v -512 -704 0
v -512 -688 0
v -496 -688 0
v -512 -704 0
v -528 -704 0
v -528 -688 0
v -512 -688 0
v -528 -704 0
v -544 -704 0
v -544 -688 0
v -528 -688 0
v -544 -704 0
v -560 -704 0
v -560 -688 0
v -544 -688 0
v -608 -704 0
v -624 -704 0
v -624 -688 0
v -608 -688 0
v -880 -704 0
v -896 -704 0
v -896 -688 0
v -880 -688 0
v -896 -704 0
v -912 -704 0
v -912 -688 0
v -896 -688 0
v -912 -704 0
v -928 -704 0
v -928 -688 0
v -912 -688 0
v -368 -720 0
v -384 -720 0
v -384 -704 0
v -368 -704 0
v -432 -720 0
v -448 -720 0
v -448 -704 0
v -432 -704 0
v -448 -720 0
v -464 -720 0
v -464 -704 0
v -448 -704 0
v -464 -720 0
v -480 -720 0
v -480 -704 0
v -464 -704 0
v -480 -720 0
v -496 -720 0
v -496 -704 0
v -480 -704 0
v -496 -720 0
v -512 -720 0
v -512 -704 0
v -496 -704 0
v -512 -720 0
v -528 -720 0
v -528 -704 0
v -512 -704 0
v -528 -720 0
v -544 -720 0
v -544 -704 0
v -528 -704 0
v -544 -720 0
v -560 -720 0
v -560 -704 0
v -544 -704 0
v -608 -720 0
v -624 -720 0
v -624 -704 0
v -608 -704 0
v -368 -736 0
v -384 -736 0
v -384 -720 0
v -368 -720 0
v -400 -736 0
v -416 -736 0
v -416 -720 0
v -400 -720 0
v -416 -736 0
v -432 -736 0
v -432 -720 0
v -416 -720 0
v -432 -736 0
v -448 -736 0
v -448 -720 0
v -432 -720 0
v -448 -736 0
v -464 -736 0
v -464 -720 0
v -448 -720 0
v -464 -736 0
v -480 -736 0
v -480 -720 0
v -464 -720 0
v -480 -736 0
v -496 -736 0
v -496 -720 0
v -480 -720 0
v -496 -736 0
v -512 -736 0
v -512 -720 0
v -496 -720 0
v -512 -736 0
v -528 -736 0
v -528 -720 0
v -512 -720 0
v -528 -736 0
v -544 -736 0
v -544 -720 0
v -528 -720 0
v -544 -736 0
v -560 -736 0
v -560 -720 0
v -544 -720 0
v -608 -736 0
v -624 -736 0
v -624 -720 0
v -608 -720 0
v -368 -752 0
v -384 -752 0
v -384 -736 0
v -368 -736 0
v -400 -752 0
v -416 -752 0
v -416 -736 0
v -400 -736 0
v -416 -752 0
v -432 -752 0
v -432 -736 0
v -416 -736 0
v -432 -752 0
v -448 -752 0
v -448 -736 0
v -432 -736 0
v -448 -752 0
v -464 -752 0
v -464 -736 0
v -448 -736 0
v -464 -752 0
v -480 -752 0
v -480 -736 0
v -464 -736 0
v -480 -752 0
v -496 -752 0
v -496 -736 0
v -480 -736 0
v -496 -752 0
v -512 -752 0
v -512 -736 0
v -496 -736 0
v -512 -752 0
v -528 -752 0
v -528 -736 0
v -512 -736 0
v -528 -752 0
v -544 -752 0
v -544 -736 0
v -528 -736 0
v -544 -752 0
v -560 -752 0
v -560 -736 0
v -544 -736 0
v -608 -752 0
v -624 -752 0
v -624 -736 0
v -608 -736 0
v -368 -768 0
v -384 -768 0
v -384 -752 0
v -368 -752 0
v -400 -768 0
v -416 -768 0
v -416 -752 0
v -400 -752 0
v -416 -768 0
v -432 -768 0
v -432 -752 0
v -416 -752 0
v -432 -768 0
v -448 -768 0
v -448 -752 0
v -432 -752 0
v -448 -768 0
v -464 -768 0
v -464 -752 0
v -448 -752 0
v -464 -768 0
v -480 -768 0
v -480 -752 0
v -464 -752 0
v -480 -768 0
v -496 -768 0
v -496 -752 0
v -480 -752 0
v -496 -768 0
v -512 -768 0
v -512 -752 0
v -496 -752 0
v -512 -768 0
v -528 -768 0
v -528 -752 0
v -512 -752 0
v -528 -768 0
v -544 -768 0
v -544 -752 0
v -528 -752 0
v -544 -768 0
v -560 -768 0
v -560 -752 0
v -544 -752 0
v -560 -768 0
v -576 -768 0
v -576 -752 0
v -560 -752 0
v -608 -768 0
v -624 -768 0
v -624 -752 0
v -608 -752 0
v -368 -784 0
v -384 -784 0
v -384 -768 0
v -368 -768 0
v -384 -784 0
v -400 -784 0
v -400 -768 0
v -384 -768 0
v -400 -784 0
v -416 -784 0
v -416 -768 0
v -400 -768 0
v -416 -784 0
v -432 -784 0
v -432 -768 0
v -416 -768 0
v -432 -784 0
v -448 -784 0
v -448 -768 0
v -432 -768 0
v -448 -784 0
v -464 -784 0
v -464 -768 0
v -448 -768 0
v -464 -784 0
v -480 -784 0
v -480 -768 0
v -464 -768 0
v -480 -784 0
v -496 -784 0
v -496 -768 0
v -480 -768 0
v -496 -784 0
v -512 -784 0
v -512 -768 0
v -496 -768 0
v -512 -784 0
v -528 -784 0
v -528 -768 0
v -512 -768 0
v -528 -784 0
v -544 -784 0
v -544 -768 0
v -528 -768 0
v -544 -784 0
v -560 -784 0
v -560 -768 0
v -544 -768 0
v -560 -784 0
v -576 -784 0
v -576 -768 0
v -560 -768 0
v -576 -784 0
v -592 -784 0
v -592 -768 0
v -576 -768 0
v -592 -784 0
v -608 -784 0
v -608 -768 0
v -592 -768 0
v -608 -784 0
v -624 -784 0
v -624 -768 0
v -608 -768 0

# Texture cooridinates (Count = 84)
vt 0.1229339 0.6787072
vt 0.1394628 0.6787072
vt 0.1394628 0.7091255
vt 0.1229339 0.7091255
vt 0.1404959 0.6787072
vt 0.1570248 0.6787072
vt 0.1570248 0.7091255
vt 0.1404959 0.7091255
vt 0.1580579 0.6787072
vt 0.1745868 0.6787072
vt 0.1745868 0.7091255
vt 0.1580579 0.7091255
vt 0.1580579 0.7110266
vt 0.1745868 0.7110266
vt 0.1745868 0.7414448
vt 0.1580579 0.7414448
vt 0.1404959 0.6463878
vt 0.1570248 0.6463878
vt 0.1570248 0.6768061
vt 0.1404959 0.6768061
vt 0.1580579 0.6463878
vt 0.1745868 0.6463878
vt 0.1745868 0.6768061
vt 0.1580579 0.6768061
vt 0.1229339 0.6140684
vt 0.1394628 0.6140684
vt 0.1394628 0.6444867
vt 0.1229339 0.6444867
vt 0.1580579 0.6140684
vt 0.1745868 0.6140684
vt 0.1745868 0.6444867
vt 0.1580579 0.6444867
vt 0.1580579 0.743346
vt 0.1745868 0.743346
vt 0.1745868 0.7737643
vt 0.1580579 0.7737643
vt 0.1229339 0.743346
vt 0.1394628 0.743346
vt 0.1394628 0.7737643
vt 0.1229339 0.7737643
vt 0.08780992 0.5817491
vt 0.1043388 0.5817491
vt 0.1043388 0.6121673
vt 0.08780992 0.6121673
vt 0.1053719 0.743346
vt 0.1219008 0.743346
vt 0.1219008 0.7737643
vt 0.1053719 0.7737643
vt 0.1053719 0.7110266
vt 0.1219008 0.7110266
vt 0.1219008 0.7414448
vt 0.1053719 0.7414448
vt 0.08780992 0.7110266
vt 0.1043388 0.7110266
vt 0.1043388 0.7414448
vt 0.08780992 0.7414448
vt 0.1229339 0.6463878
vt 0.1394628 0.6463878
vt 0.1394628 0.6768061
vt 0.1229339 0.6768061
vt 0.08780992 0.743346
vt 0.1043388 0.743346
vt 0.1043388 0.7737643
vt 0.08780992 0.7737643
vt 0.1404959 0.6140684
vt 0.1570248 0.6140684
vt 0.1570248 0.6444867
vt 0.1404959 0.6444867
vt 0.08780992 0.6463878
vt 0.1043388 0.6463878
vt 0.1043388 0.6768061
vt 0.08780992 0.6768061
vt 0.1053719 0.6463878
vt 0.1219008 0.6463878
vt 0.1219008 0.6768061
vt 0.1053719 0.6768061
vt 0.1053719 0.6787072
vt 0.1219008 0.6787072
vt 0.1219008 0.7091255
vt 0.1053719 0.7091255
vt 0.1404959 0.7110266
vt 0.1570248 0.7110266
vt 0.1570248 0.7414448
vt 0.1404959 0.7414448

# Normal
vn 0 0 -1

# Mesh description
g Level3_mesh_0002

# Faces
f 1/1/1 2/2/1 3/3/1 4/4/1
f 5/5/1 6/6/1 7/7/1 8/8/1
f 9/9/1 10/10/1 11/11/1 12/12/1
f 13/13/1 14/14/1 15/15/1 16/16/1
f 17/17/1 18/18/1 19/19/1 20/20/1
f 21/17/1 22/18/1 23/19/1 24/20/1
f 25/21/1 26/22/1 27/23/1 28/24/1
f 29/25/1 30/26/1 31/27/1 32/28/1
f 33/17/1 34/18/1 35/19/1 36/20/1
f 37/29/1 38/30/1 39/31/1 40/32/1
f 41/33/1 42/34/1 43/35/1 44/36/1
f 45/33/1 46/34/1 47/35/1 48/36/1
f 49/33/1 50/34/1 51/35/1 52/36/1
f 53/33/1 54/34/1 55/35/1 56/36/1
f 57/33/1 58/34/1 59/35/1 60/36/1
f 61/33/1 62/34/1 63/35/1 64/36/1
f 65/37/1 66/38/1 67/39/1 68/40/1
f 69/13/1 70/14/1 71/15/1 72/16/1
f 73/13/1 74/14/1 75/15/1 76/16/1
f 77/41/1 78/42/1 79/43/1 80/44/1
f 81/33/1 82/34/1 83/35/1 84/36/1
f 85/33/1 86/34/1 87/35/1 88/36/1
f 89/33/1 90/34/1 91/35/1 92/36/1
f 93/45/1 94/46/1 95/47/1 96/48/1
f 97/33/1 98/34/1 99/35/1 100/36/1
f 101/33/1 102/34/1 103/35/1 104/36/1
f 105/33/1 106/34/1 107/35/1 108/36/1
f 109/37/1 110/38/1 111/39/1 112/40/1
f 113/13/1 114/14/1 115/15/1 116/16/1
f 117/13/1 118/14/1 119/15/1 120/16/1
f 121/49/1 122/50/1 123/51/1 124/52/1
f 125/13/1 126/14/1 127/15/1 128/16/1
f 129/13/1 130/14/1 131/15/1 132/16/1
f 133/13/1 134/14/1 135/15/1 136/16/1
f 137/13/1 138/14/1 139/15/1 140/16/1
f 141/13/1 142/14/1 143/15/1 144/16/1
f 145/13/1 146/14/1 147/15/1 148/16/1
f 149/13/1 150/14/1 151/15/1 152/16/1
f 153/49/1 154/50/1 155/51/1 156/52/1
f 157/34/1 158/35/1 159/36/1 160/33/1
f 161/34/1 162/35/1 163/36/1 164/33/1
f 165/34/1 166/35/1 167/36/1 168/33/1
f 169/45/1 170/46/1 171/47/1 172/48/1
f 173/33/1 174/34/1 175/35/1 176/36/1
f 177/33/1 178/34/1 179/35/1 180/36/1
f 181/33/1 182/34/1 183/35/1 184/36/1
f 185/53/1 186/54/1 187/55/1 188/56/1
f 189/13/1 190/14/1 191/15/1 192/16/1
f 193/13/1 194/14/1 195/15/1 196/16/1
f 197/45/1 198/46/1 199/47/1 200/48/1
f 201/33/1 202/34/1 203/35/1 204/36/1
f 205/33/1 206/34/1 207/35/1 208/36/1
f 209/33/1 210/34/1 211/35/1 212/36/1
f 213/33/1 214/34/1 215/35/1 216/36/1
f 217/33/1 218/34/1 219/35/1 220/36/1
f 221/33/1 222/34/1 223/35/1 224/36/1
f 225/33/1 226/34/1 227/35/1 228/36/1
f 229/33/1 230/34/1 231/35/1 232/36/1
f 233/33/1 234/34/1 235/35/1 236/36/1
f 237/1/1 238/2/1 239/3/1 240/4/1
f 241/5/1 242/6/1 243/7/1 244/8/1
f 245/21/1 246/22/1 247/23/1 248/24/1
f 249/33/1 250/34/1 251/35/1 252/36/1
f 253/33/1 254/34/1 255/35/1 256/36/1
f 257/33/1 258/34/1 259/35/1 260/36/1
f 261/57/1 262/58/1 263/59/1 264/60/1
f 265/17/1 266/18/1 267/19/1 268/20/1
f 269/21/1 270/22/1 271/23/1 272/24/1
f 273/33/1 274/34/1 275/35/1 276/36/1
f 277/33/1 278/34/1 279/35/1 280/36/1
f 281/33/1 282/34/1 283/35/1 284/36/1
f 285/33/1 286/34/1 287/35/1 288/36/1
f 289/57/1 290/58/1 291/59/1 292/60/1
f 293/17/1 294/18/1 295/19/1 296/20/1
f 297/17/1 298/18/1 299/19/1 300/20/1
f 301/5/1 302/6/1 303/7/1 304/8/1
f 305/5/1 306/6/1 307/7/1 308/8/1
f 309/37/1 310/38/1 311/39/1 312/40/1
f 313/49/1 314/50/1 315/51/1 316/52/1
f 317/13/1 318/14/1 319/15/1 320/16/1
f 321/13/1 322/14/1 323/15/1 324/16/1
f 325/13/1 326/14/1 327/15/1 328/16/1
f 329/13/1 330/14/1 331/15/1 332/16/1
f 333/13/1 334/14/1 335/15/1 336/16/1
f 337/49/1 338/50/1 339/51/1 340/52/1
f 341/13/1 342/14/1 343/15/1 344/16/1
f 345/13/1 346/14/1 347/15/1 348/16/1
f 349/13/1 350/14/1 351/15/1 352/16/1
f 353/49/1 354/50/1 355/51/1 356/52/1
f 357/13/1 358/14/1 359/15/1 360/16/1
f 361/13/1 362/14/1 363/15/1 364/16/1
f 365/13/1 366/14/1 367/15/1 368/16/1
f 369/61/1 370/62/1 371/63/1 372/64/1
f 373/13/1 374/14/1 375/15/1 376/16/1
f 377/13/1 378/14/1 379/15/1 380/16/1
f 381/13/1 382/14/1 383/15/1 384/16/1
f 385/29/1 386/30/1 387/31/1 388/32/1
f 389/57/1 390/58/1 391/59/1 392/60/1
f 393/17/1 394/18/1 395/19/1 396/20/1
f 397/17/1 398/18/1 399/19/1 400/20/1
f 401/17/1 402/18/1 403/19/1 404/20/1
f 405/17/1 406/18/1 407/19/1 408/20/1
f 409/33/1 410/34/1 411/35/1 412/36/1
f 413/33/1 414/34/1 415/35/1 416/36/1
f 417/57/1 418/58/1 419/59/1 420/60/1
f 421/17/1 422/18/1 423/19/1 424/20/1
f 425/17/1 426/18/1 427/19/1 428/20/1
f 429/65/1 430/66/1 431/67/1 432/68/1
f 433/65/1 434/66/1 435/67/1 436/68/1
f 437/33/1 438/34/1 439/35/1 440/36/1
f 441/1/1 442/2/1 443/3/1 444/4/1
f 445/5/1 446/6/1 447/7/1 448/8/1
f 449/5/1 450/6/1 451/7/1 452/8/1
f 453/5/1 454/6/1 455/7/1 456/8/1
f 457/5/1 458/6/1 459/7/1 460/8/1
f 461/5/1 462/6/1 463/7/1 464/8/1
f 465/9/1 466/10/1 467/11/1 468/12/1
f 469/33/1 470/34/1 471/35/1 472/36/1
f 473/57/1 474/58/1 475/59/1 476/60/1
f 477/17/1 478/18/1 479/19/1 480/20/1
f 481/21/1 482/22/1 483/23/1 484/24/1
f 485/33/1 486/34/1 487/35/1 488/36/1
f 489/1/1 490/2/1 491/3/1 492/4/1
f 493/17/1 494/18/1 495/19/1 496/20/1
f 497/17/1 498/18/1 499/19/1 500/20/1
f 501/17/1 502/18/1 503/19/1 504/20/1
f 505/17/1 506/18/1 507/19/1 508/20/1
f 509/17/1 510/18/1 511/19/1 512/20/1
f 513/17/1 514/18/1 515/19/1 516/20/1
f 517/58/1 518/57/1 519/60/1 520/59/1
f 521/33/1 522/34/1 523/35/1 524/36/1
f 525/25/1 526/26/1 527/27/1 528/28/1
f 529/65/1 530/66/1 531/67/1 532/68/1
f 533/29/1 534/30/1 535/31/1 536/32/1
f 537/33/1 538/34/1 539/35/1 540/36/1
f 541/57/1 542/58/1 543/59/1 544/60/1
f 545/17/1 546/18/1 547/19/1 548/20/1
f 549/17/1 550/18/1 551/19/1 552/20/1
f 553/17/1 554/18/1 555/19/1 556/20/1
f 557/17/1 558/18/1 559/19/1 560/20/1
f 561/69/1 562/70/1 563/71/1 564/72/1
f 565/17/1 566/18/1 567/19/1 568/20/1
f 569/21/1 570/22/1 571/23/1 572/24/1
f 573/33/1 574/34/1 575/35/1 576/36/1
f 577/33/1 578/34/1 579/35/1 580/36/1
f 581/1/1 582/2/1 583/3/1 584/4/1
f 585/5/1 586/6/1 587/7/1 588/8/1
f 589/73/1 590/74/1 591/75/1 592/76/1
f 593/17/1 594/18/1 595/19/1 596/20/1
f 597/17/1 598/18/1 599/19/1 600/20/1
f 601/17/1 602/18/1 603/19/1 604/20/1
f 605/17/1 606/18/1 607/19/1 608/20/1
f 609/17/1 610/18/1 611/19/1 612/20/1
f 613/17/1 614/18/1 615/19/1 616/20/1
f 617/21/1 618/22/1 619/23/1 620/24/1
f 621/33/1 622/34/1 623/35/1 624/36/1
f 625/33/1 626/34/1 627/35/1 628/36/1
f 629/57/1 630/58/1 631/59/1 632/60/1
f 633/17/1 634/18/1 635/19/1 636/20/1
f 637/17/1 638/18/1 639/19/1 640/20/1
f 641/17/1 642/18/1 643/19/1 644/20/1
f 645/17/1 646/18/1 647/19/1 648/20/1
f 649/17/1 650/18/1 651/19/1 652/20/1
f 653/17/1 654/18/1 655/19/1 656/20/1
f 657/17/1 658/18/1 659/19/1 660/20/1
f 661/17/1 662/18/1 663/19/1 664/20/1
f 665/21/1 666/22/1 667/23/1 668/24/1
f 669/33/1 670/34/1 671/35/1 672/36/1
f 673/33/1 674/34/1 675/35/1 676/36/1
f 677/57/1 678/58/1 679/59/1 680/60/1
f 681/17/1 682/18/1 683/19/1 684/20/1
f 685/77/1 686/78/1 687/79/1 688/80/1
f 689/17/1 690/18/1 691/19/1 692/20/1
f 693/17/1 694/18/1 695/19/1 696/20/1
f 697/17/1 698/18/1 699/19/1 700/20/1
f 701/17/1 702/18/1 703/19/1 704/20/1
f 705/17/1 706/18/1 707/19/1 708/20/1
f 709/17/1 710/18/1 711/19/1 712/20/1
f 713/17/1 714/18/1 715/19/1 716/20/1
f 717/9/1 718/10/1 719/11/1 720/12/1
f 721/33/1 722/34/1 723/35/1 724/36/1
f 725/25/1 726/26/1 727/27/1 728/28/1
f 729/13/1 730/14/1 731/15/1 732/16/1
f 733/65/1 734/66/1 735/67/1 736/68/1
f 737/65/1 738/66/1 739/67/1 740/68/1
f 741/65/1 742/66/1 743/67/1 744/68/1
f 745/65/1 746/66/1 747/67/1 748/68/1
f 749/65/1 750/66/1 751/67/1 752/68/1
f 753/65/1 754/66/1 755/67/1 756/68/1
f 757/65/1 758/66/1 759/67/1 760/68/1
f 761/65/1 762/66/1 763/67/1 764/68/1
f 765/65/1 766/66/1 767/67/1 768/68/1
f 769/65/1 770/66/1 771/67/1 772/68/1
f 773/65/1 774/66/1 775/67/1 776/68/1
f 777/65/1 778/66/1 779/67/1 780/68/1
f 781/65/1 782/66/1 783/67/1 784/68/1
f 785/81/1 786/82/1 787/83/1 788/84/1

