# Tiled2Unity generated file. Do not modify by hand.
# Wavefront file for 'Level3_mesh_0007.obj'

# Vertices (Count = 372)
v -416 -448 0
v -432 -448 0
v -432 -432 0
v -416 -432 0
v -432 -448 0
v -448 -448 0
v -448 -432 0
v -432 -432 0
v -416 -464 0
v -432 -464 0
v -432 -448 0
v -416 -448 0
v -432 -464 0
v -448 -464 0
v -448 -448 0
v -432 -448 0
v -416 -480 0
v -432 -480 0
v -432 -464 0
v -416 -464 0
v -432 -480 0
v -448 -480 0
v -448 -464 0
v -432 -464 0
v -416 -496 0
v -432 -496 0
v -432 -480 0
v -416 -480 0
v -432 -496 0
v -448 -496 0
v -448 -480 0
v -432 -480 0
v -816 -512 0
v -832 -512 0
v -832 -496 0
v -816 -496 0
v -832 -512 0
v -848 -512 0
v -848 -496 0
v -832 -496 0
v -864 -512 0
v -880 -512 0
v -880 -496 0
v -864 -496 0
v -880 -512 0
v -896 -512 0
v -896 -496 0
v -880 -496 0
v -896 -512 0
v -912 -512 0
v -912 -496 0
v -896 -496 0
v -528 -528 0
v -544 -528 0
v -544 -512 0
v -528 -512 0
v -544 -528 0
v -560 -528 0
v -560 -512 0
v -544 -512 0
v -560 -528 0
v -576 -528 0
v -576 -512 0
v -560 -512 0
v -784 -528 0
v -800 -528 0
v -800 -512 0
v -784 -512 0
v -800 -528 0
v -816 -528 0
v -816 -512 0
v -800 -512 0
v -816 -528 0
v -832 -528 0
v -832 -512 0
v -816 -512 0
v -832 -528 0
v -848 -528 0
v -848 -512 0
v -832 -512 0
v -864 -528 0
v -880 -528 0
v -880 -512 0
v -864 -512 0
v -880 -528 0
v -896 -528 0
v -896 -512 0
v -880 -512 0
v -896 -528 0
v -912 -528 0
v -912 -512 0
v -896 -512 0
v -928 -528 0
v -944 -528 0
v -944 -512 0
v -928 -512 0
v -944 -528 0
v -960 -528 0
v -960 -512 0
v -944 -512 0
v -416 -544 0
v -432 -544 0
v -432 -528 0
v -416 -528 0
v -432 -544 0
v -448 -544 0
v -448 -528 0
v -432 -528 0
v -448 -544 0
v -464 -544 0
v -464 -528 0
v -448 -528 0
v -528 -544 0
v -544 -544 0
v -544 -528 0
v -528 -528 0
v -544 -544 0
v -560 -544 0
v -560 -528 0
v -544 -528 0
v -560 -544 0
v -576 -544 0
v -576 -528 0
v -560 -528 0
v -928 -544 0
v -944 -544 0
v -944 -528 0
v -928 -528 0
v -944 -544 0
v -960 -544 0
v -960 -528 0
v -944 -528 0
v -416 -560 0
v -432 -560 0
v -432 -544 0
v -416 -544 0
v -432 -560 0
v -448 -560 0
v -448 -544 0
v -432 -544 0
v -448 -560 0
v -464 -560 0
v -464 -544 0
v -448 -544 0
v -528 -560 0
v -544 -560 0
v -544 -544 0
v -528 -544 0
v -544 -560 0
v -560 -560 0
v -560 -544 0
v -544 -544 0
v -560 -560 0
v -576 -560 0
v -576 -544 0
v -560 -544 0
v -416 -576 0
v -432 -576 0
v -432 -560 0
v -416 -560 0
v -432 -576 0
v -448 -576 0
v -448 -560 0
v -432 -560 0
v -448 -576 0
v -464 -576 0
v -464 -560 0
v -448 -560 0
v -544 -576 0
v -560 -576 0
v -560 -560 0
v -544 -560 0
v -832 -576 0
v -848 -576 0
v -848 -560 0
v -832 -560 0
v -544 -592 0
v -560 -592 0
v -560 -576 0
v -544 -576 0
v -832 -592 0
v -848 -592 0
v -848 -576 0
v -832 -576 0
v -432 -608 0
v -448 -608 0
v -448 -592 0
v -432 -592 0
v -480 -624 0
v -496 -624 0
v -496 -608 0
v -480 -608 0
v -960 -640 0
v -976 -640 0
v -976 -624 0
v -960 -624 0
v -976 -640 0
v -992 -640 0
v -992 -624 0
v -976 -624 0
v -992 -640 0
v -1008 -640 0
v -1008 -624 0
v -992 -624 0
v -1008 -640 0
v -1024 -640 0
v -1024 -624 0
v -1008 -624 0
v -1024 -640 0
v -1040 -640 0
v -1040 -624 0
v -1024 -624 0
v -960 -656 0
v -976 -656 0
v -976 -640 0
v -960 -640 0
v -976 -656 0
v -992 -656 0
v -992 -640 0
v -976 -640 0
v -992 -656 0
v -1008 -656 0
v -1008 -640 0
v -992 -640 0
v -1008 -656 0
v -1024 -656 0
v -1024 -640 0
v -1008 -640 0
v -1024 -656 0
v -1040 -656 0
v -1040 -640 0
v -1024 -640 0
v -960 -672 0
v -976 -672 0
v -976 -656 0
v -960 -656 0
v -976 -672 0
v -992 -672 0
v -992 -656 0
v -976 -656 0
v -992 -672 0
v -1008 -672 0
v -1008 -656 0
v -992 -656 0
v -1008 -672 0
v -1024 -672 0
v -1024 -656 0
v -1008 -656 0
v -1024 -672 0
v -1040 -672 0
v -1040 -656 0
v -1024 -656 0
v -960 -688 0
v -976 -688 0
v -976 -672 0
v -960 -672 0
v -976 -688 0
v -992 -688 0
v -992 -672 0
v -976 -672 0
v -992 -688 0
v -1008 -688 0
v -1008 -672 0
v -992 -672 0
v -1008 -688 0
v -1024 -688 0
v -1024 -672 0
v -1008 -672 0
v -1024 -688 0
v -1040 -688 0
v -1040 -672 0
v -1024 -672 0
v -960 -704 0
v -976 -704 0
v -976 -688 0
v -960 -688 0
v -976 -704 0
v -992 -704 0
v -992 -688 0
v -976 -688 0
v -992 -704 0
v -1008 -704 0
v -1008 -688 0
v -992 -688 0
v -1008 -704 0
v -1024 -704 0
v -1024 -688 0
v -1008 -688 0
v -1024 -704 0
v -1040 -704 0
v -1040 -688 0
v -1024 -688 0
v -960 -720 0
v -976 -720 0
v -976 -704 0
v -960 -704 0
v -976 -720 0
v -992 -720 0
v -992 -704 0
v -976 -704 0
v -992 -720 0
v -1008 -720 0
v -1008 -704 0
v -992 -704 0
v -1008 -720 0
v -1024 -720 0
v -1024 -704 0
v -1008 -704 0
v -1024 -720 0
v -1040 -720 0
v -1040 -704 0
v -1024 -704 0
v -960 -736 0
v -976 -736 0
v -976 -720 0
v -960 -720 0
v -976 -736 0
v -992 -736 0
v -992 -720 0
v -976 -720 0
v -992 -736 0
v -1008 -736 0
v -1008 -720 0
v -992 -720 0
v -1008 -736 0
v -1024 -736 0
v -1024 -720 0
v -1008 -720 0
v -1024 -736 0
v -1040 -736 0
v -1040 -720 0
v -1024 -720 0
v -960 -752 0
v -976 -752 0
v -976 -736 0
v -960 -736 0
v -976 -752 0
v -992 -752 0
v -992 -736 0
v -976 -736 0
v -992 -752 0
v -1008 -752 0
v -1008 -736 0
v -992 -736 0
v -1008 -752 0
v -1024 -752 0
v -1024 -736 0
v -1008 -736 0
v -1024 -752 0
v -1040 -752 0
v -1040 -736 0
v -1024 -736 0
v -960 -768 0
v -976 -768 0
v -976 -752 0
v -960 -752 0
v -976 -768 0
v -992 -768 0
v -992 -752 0
v -976 -752 0
v -992 -768 0
v -1008 -768 0
v -1008 -752 0
v -992 -752 0
v -1008 -768 0
v -1024 -768 0
v -1024 -752 0
v -1008 -752 0
v -1024 -768 0
v -1040 -768 0
v -1040 -752 0
v -1024 -752 0

# Texture cooridinates (Count = 152)
vt 0.3512397 0.2908745
vt 0.3677686 0.2908745
vt 0.3677686 0.3212928
vt 0.3512397 0.3212928
vt 0.3688017 0.2908745
vt 0.3853306 0.2908745
vt 0.3853306 0.3212928
vt 0.3688017 0.3212928
vt 0.4039256 0.1939163
vt 0.4204545 0.1939163
vt 0.4204545 0.2243346
vt 0.4039256 0.2243346
vt 0.3688017 0.2585551
vt 0.3853306 0.2585551
vt 0.3853306 0.2889734
vt 0.3688017 0.2889734
vt 0.3512397 0.2262357
vt 0.3677686 0.2262357
vt 0.3677686 0.256654
vt 0.3512397 0.256654
vt 0.3688017 0.2262357
vt 0.3853306 0.2262357
vt 0.3853306 0.256654
vt 0.3688017 0.256654
vt 0.4917355 0.7110266
vt 0.5082645 0.7110266
vt 0.5082645 0.7414448
vt 0.4917355 0.7414448
vt 0.5092975 0.7110266
vt 0.5258265 0.7110266
vt 0.5258265 0.7414448
vt 0.5092975 0.7414448
vt 0.3512397 0.6463878
vt 0.3677686 0.6463878
vt 0.3677686 0.6768061
vt 0.3512397 0.6768061
vt 0.3688017 0.6463878
vt 0.3853306 0.6463878
vt 0.3853306 0.6768061
vt 0.3688017 0.6768061
vt 0.3863636 0.6140684
vt 0.4028926 0.6140684
vt 0.4028926 0.6444867
vt 0.3863636 0.6444867
vt 0.4390496 0.6140684
vt 0.4555785 0.6140684
vt 0.4555785 0.6444867
vt 0.4390496 0.6444867
vt 0.4390496 0.2908745
vt 0.4555785 0.2908745
vt 0.4555785 0.3212928
vt 0.4390496 0.3212928
vt 0 0.6787072
vt 0.01652892 0.6787072
vt 0.01652892 0.7091255
vt 0 0.7091255
vt 0.01756198 0.6787072
vt 0.03409091 0.6787072
vt 0.03409091 0.7091255
vt 0.01756198 0.7091255
vt 0.3512397 0.2585551
vt 0.3677686 0.2585551
vt 0.3677686 0.2889734
vt 0.3512397 0.2889734
vt 0.4390496 0.2585551
vt 0.4555785 0.2585551
vt 0.4555785 0.2889734
vt 0.4390496 0.2889734
vt 0 0.6463878
vt 0.01652892 0.6463878
vt 0.01652892 0.6768061
vt 0 0.6768061
vt 0.01756198 0.6463878
vt 0.03409091 0.6463878
vt 0.03409091 0.6768061
vt 0.01756198 0.6768061
vt 0.3863636 0.2585551
vt 0.4028926 0.2585551
vt 0.4028926 0.2889734
vt 0.3863636 0.2889734
vt 0.8078513 0.8079848
vt 0.8243802 0.8079848
vt 0.8243802 0.838403
vt 0.8078513 0.838403
vt 0.9132231 0.6463878
vt 0.9297521 0.6463878
vt 0.9297521 0.6768061
vt 0.9132231 0.6768061
vt 0.5795454 0.9372624
vt 0.5960744 0.9372624
vt 0.5960744 0.9676806
vt 0.5795454 0.9676806
vt 0.9307851 0.3555133
vt 0.947314 0.3555133
vt 0.947314 0.3859316
vt 0.9307851 0.3859316
vt 0.7727273 0.8079848
vt 0.7892562 0.8079848
vt 0.7892562 0.838403
vt 0.7727273 0.838403
vt 0.5795454 0.9695817
vt 0.5960744 0.9695817
vt 0.5960744 1
vt 0.5795454 1
vt 0.5268595 0.5817491
vt 0.5433884 0.5817491
vt 0.5433884 0.6121673
vt 0.5268595 0.6121673
vt 0.4917355 0.5817491
vt 0.5082645 0.5817491
vt 0.5082645 0.6121673
vt 0.4917355 0.6121673
vt 0.5444215 0.5817491
vt 0.5609504 0.5817491
vt 0.5609504 0.6121673
vt 0.5444215 0.6121673
vt 0.03512397 0.6787072
vt 0.05165289 0.6787072
vt 0.05165289 0.7091255
vt 0.03512397 0.7091255
vt 0.05268595 0.6787072
vt 0.06921487 0.6787072
vt 0.06921487 0.7091255
vt 0.05268595 0.7091255
vt 0.07024793 0.6787072
vt 0.08677686 0.6787072
vt 0.08677686 0.7091255
vt 0.07024793 0.7091255
vt 0.03512397 0.6463878
vt 0.05165289 0.6463878
vt 0.05165289 0.6768061
vt 0.03512397 0.6768061
vt 0.05268595 0.6463878
vt 0.06921487 0.6463878
vt 0.06921487 0.6768061
vt 0.05268595 0.6768061
vt 0.07024793 0.6463878
vt 0.08677686 0.6463878
vt 0.08677686 0.6768061
vt 0.07024793 0.6768061
vt 0.03512397 0.6140684
vt 0.05165289 0.6140684
vt 0.05165289 0.6444867
vt 0.03512397 0.6444867
vt 0.05268595 0.6140684
vt 0.06921487 0.6140684
vt 0.06921487 0.6444867
vt 0.05268595 0.6444867
vt 0.07024793 0.6140684
vt 0.08677686 0.6140684
vt 0.08677686 0.6444867
vt 0.07024793 0.6444867

# Normal
vn 0 0 -1

# Mesh description
g Level3_mesh_0007

# Faces
f 1/1/1 2/2/1 3/3/1 4/4/1
f 5/5/1 6/6/1 7/7/1 8/8/1
f 9/9/1 10/10/1 11/11/1 12/12/1
f 13/13/1 14/14/1 15/15/1 16/16/1
f 17/17/1 18/18/1 19/19/1 20/20/1
f 21/21/1 22/22/1 23/23/1 24/24/1
f 25/25/1 26/26/1 27/27/1 28/28/1
f 29/29/1 30/30/1 31/31/1 32/32/1
f 33/33/1 34/34/1 35/35/1 36/36/1
f 37/37/1 38/38/1 39/39/1 40/40/1
f 41/41/1 42/42/1 43/43/1 44/44/1
f 45/41/1 46/42/1 47/43/1 48/44/1
f 49/45/1 50/46/1 51/47/1 52/48/1
f 53/1/1 54/2/1 55/3/1 56/4/1
f 57/49/1 58/50/1 59/51/1 60/52/1
f 61/5/1 62/6/1 63/7/1 64/8/1
f 65/45/1 66/46/1 67/47/1 68/48/1
f 69/45/1 70/46/1 71/47/1 72/48/1
f 73/45/1 74/46/1 75/47/1 76/48/1
f 77/45/1 78/46/1 79/47/1 80/48/1
f 81/45/1 82/46/1 83/47/1 84/48/1
f 85/45/1 86/46/1 87/47/1 88/48/1
f 89/45/1 90/46/1 91/47/1 92/48/1
f 93/53/1 94/54/1 95/55/1 96/56/1
f 97/57/1 98/58/1 99/59/1 100/60/1
f 101/1/1 102/2/1 103/3/1 104/4/1
f 105/49/1 106/50/1 107/51/1 108/52/1
f 109/5/1 110/6/1 111/7/1 112/8/1
f 113/61/1 114/62/1 115/63/1 116/64/1
f 117/65/1 118/66/1 119/67/1 120/68/1
f 121/13/1 122/14/1 123/15/1 124/16/1
f 125/69/1 126/70/1 127/71/1 128/72/1
f 129/73/1 130/74/1 131/75/1 132/76/1
f 133/61/1 134/62/1 135/63/1 136/64/1
f 137/65/1 138/66/1 139/67/1 140/68/1
f 141/13/1 142/14/1 143/15/1 144/16/1
f 145/17/1 146/18/1 147/19/1 148/20/1
f 149/77/1 150/78/1 151/79/1 152/80/1
f 153/21/1 154/22/1 155/23/1 156/24/1
f 157/17/1 158/18/1 159/19/1 160/20/1
f 161/77/1 162/78/1 163/79/1 164/80/1
f 165/21/1 166/22/1 167/23/1 168/24/1
f 169/81/1 170/82/1 171/83/1 172/84/1
f 173/85/1 174/86/1 175/87/1 176/88/1
f 177/89/1 178/90/1 179/91/1 180/92/1
f 181/93/1 182/94/1 183/95/1 184/96/1
f 185/97/1 186/98/1 187/99/1 188/100/1
f 189/101/1 190/102/1 191/103/1 192/104/1
f 193/105/1 194/106/1 195/107/1 196/108/1
f 197/109/1 198/110/1 199/111/1 200/112/1
f 201/109/1 202/110/1 203/111/1 204/112/1
f 205/109/1 206/110/1 207/111/1 208/112/1
f 209/113/1 210/114/1 211/115/1 212/116/1
f 213/112/1 214/109/1 215/110/1 216/111/1
f 217/117/1 218/118/1 219/119/1 220/120/1
f 221/121/1 222/122/1 223/123/1 224/124/1
f 225/125/1 226/126/1 227/127/1 228/128/1
f 229/110/1 230/111/1 231/112/1 232/109/1
f 233/112/1 234/109/1 235/110/1 236/111/1
f 237/129/1 238/130/1 239/131/1 240/132/1
f 241/133/1 242/134/1 243/135/1 244/136/1
f 245/137/1 246/138/1 247/139/1 248/140/1
f 249/110/1 250/111/1 251/112/1 252/109/1
f 253/112/1 254/109/1 255/110/1 256/111/1
f 257/129/1 258/130/1 259/131/1 260/132/1
f 261/133/1 262/134/1 263/135/1 264/136/1
f 265/137/1 266/138/1 267/139/1 268/140/1
f 269/110/1 270/111/1 271/112/1 272/109/1
f 273/112/1 274/109/1 275/110/1 276/111/1
f 277/129/1 278/130/1 279/131/1 280/132/1
f 281/133/1 282/134/1 283/135/1 284/136/1
f 285/137/1 286/138/1 287/139/1 288/140/1
f 289/110/1 290/111/1 291/112/1 292/109/1
f 293/112/1 294/109/1 295/110/1 296/111/1
f 297/129/1 298/130/1 299/131/1 300/132/1
f 301/133/1 302/134/1 303/135/1 304/136/1
f 305/137/1 306/138/1 307/139/1 308/140/1
f 309/110/1 310/111/1 311/112/1 312/109/1
f 313/112/1 314/109/1 315/110/1 316/111/1
f 317/129/1 318/130/1 319/131/1 320/132/1
f 321/133/1 322/134/1 323/135/1 324/136/1
f 325/137/1 326/138/1 327/139/1 328/140/1
f 329/110/1 330/111/1 331/112/1 332/109/1
f 333/112/1 334/109/1 335/110/1 336/111/1
f 337/141/1 338/142/1 339/143/1 340/144/1
f 341/145/1 342/146/1 343/147/1 344/148/1
f 345/149/1 346/150/1 347/151/1 348/152/1
f 349/110/1 350/111/1 351/112/1 352/109/1
f 353/108/1 354/105/1 355/106/1 356/107/1
f 357/111/1 358/112/1 359/109/1 360/110/1
f 361/111/1 362/112/1 363/109/1 364/110/1
f 365/111/1 366/112/1 367/109/1 368/110/1
f 369/114/1 370/115/1 371/116/1 372/113/1

