# Tiled2Unity generated file. Do not modify by hand.
# Wavefront file for 'Level2_mesh_0003.obj'

# Vertices (Count = 104)
v -736 -608 0
v -752 -608 0
v -752 -592 0
v -736 -592 0
v -752 -608 0
v -768 -608 0
v -768 -592 0
v -752 -592 0
v -768 -608 0
v -784 -608 0
v -784 -592 0
v -768 -592 0
v -784 -608 0
v -800 -608 0
v -800 -592 0
v -784 -592 0
v -800 -608 0
v -816 -608 0
v -816 -592 0
v -800 -592 0
v -816 -608 0
v -832 -608 0
v -832 -592 0
v -816 -592 0
v -832 -608 0
v -848 -608 0
v -848 -592 0
v -832 -592 0
v -848 -608 0
v -864 -608 0
v -864 -592 0
v -848 -592 0
v -1024 -624 0
v -1040 -624 0
v -1040 -608 0
v -1024 -608 0
v -736 -640 0
v -752 -640 0
v -752 -624 0
v -736 -624 0
v -752 -640 0
v -768 -640 0
v -768 -624 0
v -752 -624 0
v -768 -640 0
v -784 -640 0
v -784 -624 0
v -768 -624 0
v -784 -640 0
v -800 -640 0
v -800 -624 0
v -784 -624 0
v -800 -640 0
v -816 -640 0
v -816 -624 0
v -800 -624 0
v -816 -640 0
v -832 -640 0
v -832 -624 0
v -816 -624 0
v -832 -640 0
v -848 -640 0
v -848 -624 0
v -832 -624 0
v -848 -640 0
v -864 -640 0
v -864 -624 0
v -848 -624 0
v -736 -672 0
v -752 -672 0
v -752 -656 0
v -736 -656 0
v -752 -672 0
v -768 -672 0
v -768 -656 0
v -752 -656 0
v -768 -672 0
v -784 -672 0
v -784 -656 0
v -768 -656 0
v -784 -672 0
v -800 -672 0
v -800 -656 0
v -784 -656 0
v -800 -672 0
v -816 -672 0
v -816 -656 0
v -800 -656 0
v -816 -672 0
v -832 -672 0
v -832 -656 0
v -816 -656 0
v -832 -672 0
v -848 -672 0
v -848 -656 0
v -832 -656 0
v -848 -672 0
v -864 -672 0
v -864 -656 0
v -848 -656 0
v -704 -768 0
v -720 -768 0
v -720 -752 0
v -704 -752 0

# Texture cooridinates (Count = 16)
vt 0.1053719 0.3878327
vt 0.1219008 0.3878327
vt 0.1219008 0.418251
vt 0.1053719 0.418251
vt 0.1580579 0.5171102
vt 0.1745868 0.5171102
vt 0.1745868 0.5475285
vt 0.1580579 0.5475285
vt 0.2809917 0.3878327
vt 0.2975207 0.3878327
vt 0.2975207 0.418251
vt 0.2809917 0.418251
vt 0.2985537 0.743346
vt 0.3150826 0.743346
vt 0.3150826 0.7737643
vt 0.2985537 0.7737643

# Normal
vn 0 0 -1

# Mesh description
g Level2_mesh_0003

# Faces
f 1/1/1 2/2/1 3/3/1 4/4/1
f 5/5/1 6/6/1 7/7/1 8/8/1
f 9/5/1 10/6/1 11/7/1 12/8/1
f 13/5/1 14/6/1 15/7/1 16/8/1
f 17/5/1 18/6/1 19/7/1 20/8/1
f 21/5/1 22/6/1 23/7/1 24/8/1
f 25/5/1 26/6/1 27/7/1 28/8/1
f 29/5/1 30/6/1 31/7/1 32/8/1
f 33/9/1 34/10/1 35/11/1 36/12/1
f 37/1/1 38/2/1 39/3/1 40/4/1
f 41/5/1 42/6/1 43/7/1 44/8/1
f 45/5/1 46/6/1 47/7/1 48/8/1
f 49/5/1 50/6/1 51/7/1 52/8/1
f 53/5/1 54/6/1 55/7/1 56/8/1
f 57/5/1 58/6/1 59/7/1 60/8/1
f 61/5/1 62/6/1 63/7/1 64/8/1
f 65/5/1 66/6/1 67/7/1 68/8/1
f 69/1/1 70/2/1 71/3/1 72/4/1
f 73/5/1 74/6/1 75/7/1 76/8/1
f 77/5/1 78/6/1 79/7/1 80/8/1
f 81/5/1 82/6/1 83/7/1 84/8/1
f 85/5/1 86/6/1 87/7/1 88/8/1
f 89/5/1 90/6/1 91/7/1 92/8/1
f 93/5/1 94/6/1 95/7/1 96/8/1
f 97/5/1 98/6/1 99/7/1 100/8/1
f 101/13/1 102/14/1 103/15/1 104/16/1

