# Tiled2Unity generated file. Do not modify by hand.
# Wavefront file for 'Level2_mesh_0006.obj'

# Vertices (Count = 740)
v -848 -480 0
v -864 -480 0
v -864 -464 0
v -848 -464 0
v -864 -480 0
v -880 -480 0
v -880 -464 0
v -864 -464 0
v -896 -480 0
v -912 -480 0
v -912 -464 0
v -896 -464 0
v -912 -480 0
v -928 -480 0
v -928 -464 0
v -912 -464 0
v -928 -480 0
v -944 -480 0
v -944 -464 0
v -928 -464 0
v -944 -480 0
v -960 -480 0
v -960 -464 0
v -944 -464 0
v -960 -480 0
v -976 -480 0
v -976 -464 0
v -960 -464 0
v -976 -480 0
v -992 -480 0
v -992 -464 0
v -976 -464 0
v -992 -480 0
v -1008 -480 0
v -1008 -464 0
v -992 -464 0
v -688 -496 0
v -704 -496 0
v -704 -480 0
v -688 -480 0
v -704 -496 0
v -720 -496 0
v -720 -480 0
v -704 -480 0
v -720 -496 0
v -736 -496 0
v -736 -480 0
v -720 -480 0
v -736 -496 0
v -752 -496 0
v -752 -480 0
v -736 -480 0
v -752 -496 0
v -768 -496 0
v -768 -480 0
v -752 -480 0
v -768 -496 0
v -784 -496 0
v -784 -480 0
v -768 -480 0
v -784 -496 0
v -800 -496 0
v -800 -480 0
v -784 -480 0
v -800 -496 0
v -816 -496 0
v -816 -480 0
v -800 -480 0
v -816 -496 0
v -832 -496 0
v -832 -480 0
v -816 -480 0
v -832 -496 0
v -848 -496 0
v -848 -480 0
v -832 -480 0
v -848 -496 0
v -864 -496 0
v -864 -480 0
v -848 -480 0
v -864 -496 0
v -880 -496 0
v -880 -480 0
v -864 -480 0
v -880 -496 0
v -896 -496 0
v -896 -480 0
v -880 -480 0
v -896 -496 0
v -912 -496 0
v -912 -480 0
v -896 -480 0
v -992 -496 0
v -1008 -496 0
v -1008 -480 0
v -992 -480 0
v -1008 -496 0
v -1024 -496 0
v -1024 -480 0
v -1008 -480 0
v -1024 -496 0
v -1040 -496 0
v -1040 -480 0
v -1024 -480 0
v -1040 -496 0
v -1056 -496 0
v -1056 -480 0
v -1040 -480 0
v -640 -512 0
v -656 -512 0
v -656 -496 0
v -640 -496 0
v -656 -512 0
v -672 -512 0
v -672 -496 0
v -656 -496 0
v -672 -512 0
v -688 -512 0
v -688 -496 0
v -672 -496 0
v -688 -512 0
v -704 -512 0
v -704 -496 0
v -688 -496 0
v -720 -512 0
v -736 -512 0
v -736 -496 0
v -720 -496 0
v -736 -512 0
v -752 -512 0
v -752 -496 0
v -736 -496 0
v -1040 -512 0
v -1056 -512 0
v -1056 -496 0
v -1040 -496 0
v -1056 -512 0
v -1072 -512 0
v -1072 -496 0
v -1056 -496 0
v -1072 -512 0
v -1088 -512 0
v -1088 -496 0
v -1072 -496 0
v -1088 -512 0
v -1104 -512 0
v -1104 -496 0
v -1088 -496 0
v -640 -528 0
v -656 -528 0
v -656 -512 0
v -640 -512 0
v -1056 -528 0
v -1072 -528 0
v -1072 -512 0
v -1056 -512 0
v -1072 -528 0
v -1088 -528 0
v -1088 -512 0
v -1072 -512 0
v -640 -544 0
v -656 -544 0
v -656 -528 0
v -640 -528 0
v -1072 -544 0
v -1088 -544 0
v -1088 -528 0
v -1072 -528 0
v -640 -560 0
v -656 -560 0
v -656 -544 0
v -640 -544 0
v -800 -560 0
v -816 -560 0
v -816 -544 0
v -800 -544 0
v -1072 -560 0
v -1088 -560 0
v -1088 -544 0
v -1072 -544 0
v -640 -576 0
v -656 -576 0
v -656 -560 0
v -640 -560 0
v -704 -576 0
v -720 -576 0
v -720 -560 0
v -704 -560 0
v -800 -576 0
v -816 -576 0
v -816 -560 0
v -800 -560 0
v -1072 -576 0
v -1088 -576 0
v -1088 -560 0
v -1072 -560 0
v -1104 -576 0
v -1120 -576 0
v -1120 -560 0
v -1104 -560 0
v -640 -592 0
v -656 -592 0
v -656 -576 0
v -640 -576 0
v -1088 -592 0
v -1104 -592 0
v -1104 -576 0
v -1088 -576 0
v -1104 -592 0
v -1120 -592 0
v -1120 -576 0
v -1104 -576 0
v -640 -608 0
v -656 -608 0
v -656 -592 0
v -640 -592 0
v -1088 -608 0
v -1104 -608 0
v -1104 -592 0
v -1088 -592 0
v -512 -624 0
v -528 -624 0
v -528 -608 0
v -512 -608 0
v -528 -624 0
v -544 -624 0
v -544 -608 0
v -528 -608 0
v -544 -624 0
v -560 -624 0
v -560 -608 0
v -544 -608 0
v -560 -624 0
v -576 -624 0
v -576 -608 0
v -560 -608 0
v -576 -624 0
v -592 -624 0
v -592 -608 0
v -576 -608 0
v -592 -624 0
v -608 -624 0
v -608 -608 0
v -592 -608 0
v -608 -624 0
v -624 -624 0
v -624 -608 0
v -608 -608 0
v -624 -624 0
v -640 -624 0
v -640 -608 0
v -624 -608 0
v -640 -624 0
v -656 -624 0
v -656 -608 0
v -640 -608 0
v -720 -624 0
v -736 -624 0
v -736 -608 0
v -720 -608 0
v -1072 -624 0
v -1088 -624 0
v -1088 -608 0
v -1072 -608 0
v -1088 -624 0
v -1104 -624 0
v -1104 -608 0
v -1088 -608 0
v -1104 -624 0
v -1120 -624 0
v -1120 -608 0
v -1104 -608 0
v -512 -640 0
v -528 -640 0
v -528 -624 0
v -512 -624 0
v -528 -640 0
v -544 -640 0
v -544 -624 0
v -528 -624 0
v -1088 -640 0
v -1104 -640 0
v -1104 -624 0
v -1088 -624 0
v -1104 -640 0
v -1120 -640 0
v -1120 -624 0
v -1104 -624 0
v -512 -656 0
v -528 -656 0
v -528 -640 0
v -512 -640 0
v -528 -656 0
v -544 -656 0
v -544 -640 0
v -528 -640 0
v -704 -656 0
v -720 -656 0
v -720 -640 0
v -704 -640 0
v -1056 -656 0
v -1072 -656 0
v -1072 -640 0
v -1056 -640 0
v -1072 -656 0
v -1088 -656 0
v -1088 -640 0
v -1072 -640 0
v -1088 -656 0
v -1104 -656 0
v -1104 -640 0
v -1088 -640 0
v -512 -672 0
v -528 -672 0
v -528 -656 0
v -512 -656 0
v -528 -672 0
v -544 -672 0
v -544 -656 0
v -528 -656 0
v -544 -672 0
v -560 -672 0
v -560 -656 0
v -544 -656 0
v -560 -672 0
v -576 -672 0
v -576 -656 0
v -560 -656 0
v -576 -672 0
v -592 -672 0
v -592 -656 0
v -576 -656 0
v -592 -672 0
v -608 -672 0
v -608 -656 0
v -592 -656 0
v -608 -672 0
v -624 -672 0
v -624 -656 0
v -608 -656 0
v -624 -672 0
v -640 -672 0
v -640 -656 0
v -624 -656 0
v -1056 -672 0
v -1072 -672 0
v -1072 -656 0
v -1056 -656 0
v -1072 -672 0
v -1088 -672 0
v -1088 -656 0
v -1072 -656 0
v -1088 -672 0
v -1104 -672 0
v -1104 -656 0
v -1088 -656 0
v -1104 -672 0
v -1120 -672 0
v -1120 -656 0
v -1104 -656 0
v -512 -688 0
v -528 -688 0
v -528 -672 0
v -512 -672 0
v -528 -688 0
v -544 -688 0
v -544 -672 0
v -528 -672 0
v -544 -688 0
v -560 -688 0
v -560 -672 0
v -544 -672 0
v -560 -688 0
v -576 -688 0
v -576 -672 0
v -560 -672 0
v -576 -688 0
v -592 -688 0
v -592 -672 0
v -576 -672 0
v -592 -688 0
v -608 -688 0
v -608 -672 0
v -592 -672 0
v -608 -688 0
v -624 -688 0
v -624 -672 0
v -608 -672 0
v -624 -688 0
v -640 -688 0
v -640 -672 0
v -624 -672 0
v -640 -688 0
v -656 -688 0
v -656 -672 0
v -640 -672 0
v -736 -688 0
v -752 -688 0
v -752 -672 0
v -736 -672 0
v -800 -688 0
v -816 -688 0
v -816 -672 0
v -800 -672 0
v -1056 -688 0
v -1072 -688 0
v -1072 -672 0
v -1056 -672 0
v -1072 -688 0
v -1088 -688 0
v -1088 -672 0
v -1072 -672 0
v -640 -704 0
v -656 -704 0
v -656 -688 0
v -640 -688 0
v -704 -704 0
v -720 -704 0
v -720 -688 0
v -704 -688 0
v -736 -704 0
v -752 -704 0
v -752 -688 0
v -736 -688 0
v -800 -704 0
v -816 -704 0
v -816 -688 0
v -800 -688 0
v -832 -704 0
v -848 -704 0
v -848 -688 0
v -832 -688 0
v -1056 -704 0
v -1072 -704 0
v -1072 -688 0
v -1056 -688 0
v -1072 -704 0
v -1088 -704 0
v -1088 -688 0
v -1072 -688 0
v -640 -720 0
v -656 -720 0
v -656 -704 0
v -640 -704 0
v -704 -720 0
v -720 -720 0
v -720 -704 0
v -704 -704 0
v -736 -720 0
v -752 -720 0
v -752 -704 0
v -736 -704 0
v -832 -720 0
v -848 -720 0
v -848 -704 0
v -832 -704 0
v -1056 -720 0
v -1072 -720 0
v -1072 -704 0
v -1056 -704 0
v -640 -736 0
v -656 -736 0
v -656 -720 0
v -640 -720 0
v -736 -736 0
v -752 -736 0
v -752 -720 0
v -736 -720 0
v -1056 -736 0
v -1072 -736 0
v -1072 -720 0
v -1056 -720 0
v -640 -752 0
v -656 -752 0
v -656 -736 0
v -640 -736 0
v -704 -752 0
v -720 -752 0
v -720 -736 0
v -704 -736 0
v -784 -752 0
v -800 -752 0
v -800 -736 0
v -784 -736 0
v -1056 -752 0
v -1072 -752 0
v -1072 -736 0
v -1056 -736 0
v -640 -768 0
v -656 -768 0
v -656 -752 0
v -640 -752 0
v -784 -768 0
v -800 -768 0
v -800 -752 0
v -784 -752 0
v -1056 -768 0
v -1072 -768 0
v -1072 -752 0
v -1056 -752 0
v -640 -784 0
v -656 -784 0
v -656 -768 0
v -640 -768 0
v -1024 -784 0
v -1040 -784 0
v -1040 -768 0
v -1024 -768 0
v -1040 -784 0
v -1056 -784 0
v -1056 -768 0
v -1040 -768 0
v -640 -800 0
v -656 -800 0
v -656 -784 0
v -640 -784 0
v -976 -800 0
v -992 -800 0
v -992 -784 0
v -976 -784 0
v -992 -800 0
v -1008 -800 0
v -1008 -784 0
v -992 -784 0
v -1008 -800 0
v -1024 -800 0
v -1024 -784 0
v -1008 -784 0
v -1024 -800 0
v -1040 -800 0
v -1040 -784 0
v -1024 -784 0
v -1040 -800 0
v -1056 -800 0
v -1056 -784 0
v -1040 -784 0
v -656 -816 0
v -672 -816 0
v -672 -800 0
v -656 -800 0
v -944 -816 0
v -960 -816 0
v -960 -800 0
v -944 -800 0
v -960 -816 0
v -976 -816 0
v -976 -800 0
v -960 -800 0
v -976 -816 0
v -992 -816 0
v -992 -800 0
v -976 -800 0
v -992 -816 0
v -1008 -816 0
v -1008 -800 0
v -992 -800 0
v -1008 -816 0
v -1024 -816 0
v -1024 -800 0
v -1008 -800 0
v -1024 -816 0
v -1040 -816 0
v -1040 -800 0
v -1024 -800 0
v -656 -832 0
v -672 -832 0
v -672 -816 0
v -656 -816 0
v -832 -832 0
v -848 -832 0
v -848 -816 0
v -832 -816 0
v -848 -832 0
v -864 -832 0
v -864 -816 0
v -848 -816 0
v -864 -832 0
v -880 -832 0
v -880 -816 0
v -864 -816 0
v -880 -832 0
v -896 -832 0
v -896 -816 0
v -880 -816 0
v -896 -832 0
v -912 -832 0
v -912 -816 0
v -896 -816 0
v -912 -832 0
v -928 -832 0
v -928 -816 0
v -912 -816 0
v -928 -832 0
v -944 -832 0
v -944 -816 0
v -928 -816 0
v -944 -832 0
v -960 -832 0
v -960 -816 0
v -944 -816 0
v -960 -832 0
v -976 -832 0
v -976 -816 0
v -960 -816 0
v -976 -832 0
v -992 -832 0
v -992 -816 0
v -976 -816 0
v -656 -848 0
v -672 -848 0
v -672 -832 0
v -656 -832 0
v -672 -848 0
v -688 -848 0
v -688 -832 0
v -672 -832 0
v -688 -848 0
v -704 -848 0
v -704 -832 0
v -688 -832 0
v -704 -848 0
v -720 -848 0
v -720 -832 0
v -704 -832 0
v -720 -848 0
v -736 -848 0
v -736 -832 0
v -720 -832 0
v -736 -848 0
v -752 -848 0
v -752 -832 0
v -736 -832 0
v -752 -848 0
v -768 -848 0
v -768 -832 0
v -752 -832 0
v -768 -848 0
v -784 -848 0
v -784 -832 0
v -768 -832 0
v -784 -848 0
v -800 -848 0
v -800 -832 0
v -784 -832 0
v -800 -848 0
v -816 -848 0
v -816 -832 0
v -800 -832 0
v -816 -848 0
v -832 -848 0
v -832 -832 0
v -816 -832 0
v -832 -848 0
v -848 -848 0
v -848 -832 0
v -832 -832 0
v -848 -848 0
v -864 -848 0
v -864 -832 0
v -848 -832 0
v -864 -848 0
v -880 -848 0
v -880 -832 0
v -864 -832 0
v -880 -848 0
v -896 -848 0
v -896 -832 0
v -880 -832 0
v -896 -848 0
v -912 -848 0
v -912 -832 0
v -896 -832 0
v -912 -848 0
v -928 -848 0
v -928 -832 0
v -912 -832 0
v -928 -848 0
v -944 -848 0
v -944 -832 0
v -928 -832 0
v -944 -848 0
v -960 -848 0
v -960 -832 0
v -944 -832 0
v -672 -864 0
v -688 -864 0
v -688 -848 0
v -672 -848 0
v -688 -864 0
v -704 -864 0
v -704 -848 0
v -688 -848 0
v -704 -864 0
v -720 -864 0
v -720 -848 0
v -704 -848 0
v -720 -864 0
v -736 -864 0
v -736 -848 0
v -720 -848 0
v -736 -864 0
v -752 -864 0
v -752 -848 0
v -736 -848 0
v -752 -864 0
v -768 -864 0
v -768 -848 0
v -752 -848 0
v -768 -864 0
v -784 -864 0
v -784 -848 0
v -768 -848 0
v -784 -864 0
v -800 -864 0
v -800 -848 0
v -784 -848 0
v -800 -864 0
v -816 -864 0
v -816 -848 0
v -800 -848 0
v -816 -864 0
v -832 -864 0
v -832 -848 0
v -816 -848 0
v -832 -864 0
v -848 -864 0
v -848 -848 0
v -832 -848 0
v -848 -864 0
v -864 -864 0
v -864 -848 0
v -848 -848 0
v -896 -864 0
v -912 -864 0
v -912 -848 0
v -896 -848 0
v -912 -864 0
v -928 -864 0
v -928 -848 0
v -912 -848 0

# Texture cooridinates (Count = 36)
vt 0.2448347 0.6787072
vt 0.2283058 0.6787072
vt 0.2283058 0.7091255
vt 0.2448347 0.7091255
vt 0.2809917 0.6463878
vt 0.2975207 0.6463878
vt 0.2975207 0.6768061
vt 0.2809917 0.6768061
vt 0.2809917 0.6140684
vt 0.2975207 0.6140684
vt 0.2975207 0.6444867
vt 0.2809917 0.6444867
vt 0.3161157 0.6463878
vt 0.3326446 0.6463878
vt 0.3326446 0.6768061
vt 0.3161157 0.6768061
vt 0.3161157 0.6140684
vt 0.3326446 0.6140684
vt 0.3326446 0.6444867
vt 0.3161157 0.6444867
vt 0.4390496 0.6140684
vt 0.4555785 0.6140684
vt 0.4555785 0.6444867
vt 0.4390496 0.6444867
vt 0.2985537 0.6463878
vt 0.3150826 0.6463878
vt 0.3150826 0.6768061
vt 0.2985537 0.6768061
vt 0.2985537 0.6140684
vt 0.3150826 0.6140684
vt 0.3150826 0.6444867
vt 0.2985537 0.6444867
vt 0.4039256 0.6140684
vt 0.4204545 0.6140684
vt 0.4204545 0.6444867
vt 0.4039256 0.6444867

# Normal
vn 0 0 -1

# Mesh description
g Level2_mesh_0006

# Faces
f 1/1/1 2/2/1 3/3/1 4/4/1
f 5/1/1 6/2/1 7/3/1 8/4/1
f 9/1/1 10/2/1 11/3/1 12/4/1
f 13/1/1 14/2/1 15/3/1 16/4/1
f 17/1/1 18/2/1 19/3/1 20/4/1
f 21/1/1 22/2/1 23/3/1 24/4/1
f 25/1/1 26/2/1 27/3/1 28/4/1
f 29/1/1 30/2/1 31/3/1 32/4/1
f 33/1/1 34/2/1 35/3/1 36/4/1
f 37/1/1 38/2/1 39/3/1 40/4/1
f 41/1/1 42/2/1 43/3/1 44/4/1
f 45/1/1 46/2/1 47/3/1 48/4/1
f 49/1/1 50/2/1 51/3/1 52/4/1
f 53/1/1 54/2/1 55/3/1 56/4/1
f 57/1/1 58/2/1 59/3/1 60/4/1
f 61/1/1 62/2/1 63/3/1 64/4/1
f 65/1/1 66/2/1 67/3/1 68/4/1
f 69/1/1 70/2/1 71/3/1 72/4/1
f 73/1/1 74/2/1 75/3/1 76/4/1
f 77/1/1 78/2/1 79/3/1 80/4/1
f 81/1/1 82/2/1 83/3/1 84/4/1
f 85/1/1 86/2/1 87/3/1 88/4/1
f 89/1/1 90/2/1 91/3/1 92/4/1
f 93/1/1 94/2/1 95/3/1 96/4/1
f 97/1/1 98/2/1 99/3/1 100/4/1
f 101/1/1 102/2/1 103/3/1 104/4/1
f 105/1/1 106/2/1 107/3/1 108/4/1
f 109/2/1 110/1/1 111/4/1 112/3/1
f 113/1/1 114/2/1 115/3/1 116/4/1
f 117/1/1 118/2/1 119/3/1 120/4/1
f 121/1/1 122/2/1 123/3/1 124/4/1
f 125/1/1 126/2/1 127/3/1 128/4/1
f 129/1/1 130/2/1 131/3/1 132/4/1
f 133/1/1 134/2/1 135/3/1 136/4/1
f 137/1/1 138/2/1 139/3/1 140/4/1
f 141/1/1 142/2/1 143/3/1 144/4/1
f 145/1/1 146/2/1 147/3/1 148/4/1
f 149/2/1 150/1/1 151/4/1 152/3/1
f 153/1/1 154/2/1 155/3/1 156/4/1
f 157/1/1 158/2/1 159/3/1 160/4/1
f 161/2/1 162/1/1 163/4/1 164/3/1
f 165/1/1 166/2/1 167/3/1 168/4/1
f 169/2/1 170/1/1 171/4/1 172/3/1
f 173/5/1 174/6/1 175/7/1 176/8/1
f 177/1/1 178/2/1 179/3/1 180/4/1
f 181/2/1 182/1/1 183/4/1 184/3/1
f 185/2/1 186/1/1 187/4/1 188/3/1
f 189/9/1 190/10/1 191/11/1 192/12/1
f 193/1/1 194/2/1 195/3/1 196/4/1
f 197/2/1 198/1/1 199/4/1 200/3/1
f 201/2/1 202/1/1 203/4/1 204/3/1
f 205/2/1 206/1/1 207/4/1 208/3/1
f 209/2/1 210/1/1 211/4/1 212/3/1
f 213/2/1 214/1/1 215/4/1 216/3/1
f 217/2/1 218/1/1 219/4/1 220/3/1
f 221/1/1 222/2/1 223/3/1 224/4/1
f 225/1/1 226/2/1 227/3/1 228/4/1
f 229/1/1 230/2/1 231/3/1 232/4/1
f 233/1/1 234/2/1 235/3/1 236/4/1
f 237/1/1 238/2/1 239/3/1 240/4/1
f 241/1/1 242/2/1 243/3/1 244/4/1
f 245/1/1 246/2/1 247/3/1 248/4/1
f 249/1/1 250/2/1 251/3/1 252/4/1
f 253/1/1 254/2/1 255/3/1 256/4/1
f 257/2/1 258/1/1 259/4/1 260/3/1
f 261/1/1 262/2/1 263/3/1 264/4/1
f 265/2/1 266/1/1 267/4/1 268/3/1
f 269/2/1 270/1/1 271/4/1 272/3/1
f 273/1/1 274/2/1 275/3/1 276/4/1
f 277/1/1 278/2/1 279/3/1 280/4/1
f 281/2/1 282/1/1 283/4/1 284/3/1
f 285/2/1 286/1/1 287/4/1 288/3/1
f 289/1/1 290/2/1 291/3/1 292/4/1
f 293/1/1 294/2/1 295/3/1 296/4/1
f 297/2/1 298/1/1 299/4/1 300/3/1
f 301/13/1 302/14/1 303/15/1 304/16/1
f 305/13/1 306/14/1 307/15/1 308/16/1
f 309/2/1 310/1/1 311/4/1 312/3/1
f 313/1/1 314/2/1 315/3/1 316/4/1
f 317/1/1 318/2/1 319/3/1 320/4/1
f 321/1/1 322/2/1 323/3/1 324/4/1
f 325/1/1 326/2/1 327/3/1 328/4/1
f 329/1/1 330/2/1 331/3/1 332/4/1
f 333/1/1 334/2/1 335/3/1 336/4/1
f 337/1/1 338/2/1 339/3/1 340/4/1
f 341/1/1 342/2/1 343/3/1 344/4/1
f 345/17/1 346/18/1 347/19/1 348/20/1
f 349/17/1 350/18/1 351/19/1 352/20/1
f 353/2/1 354/1/1 355/4/1 356/3/1
f 357/2/1 358/1/1 359/4/1 360/3/1
f 361/1/1 362/2/1 363/3/1 364/4/1
f 365/1/1 366/2/1 367/3/1 368/4/1
f 369/1/1 370/2/1 371/3/1 372/4/1
f 373/1/1 374/2/1 375/3/1 376/4/1
f 377/1/1 378/2/1 379/3/1 380/4/1
f 381/1/1 382/2/1 383/3/1 384/4/1
f 385/1/1 386/2/1 387/3/1 388/4/1
f 389/1/1 390/2/1 391/3/1 392/4/1
f 393/1/1 394/2/1 395/3/1 396/4/1
f 397/5/1 398/6/1 399/7/1 400/8/1
f 401/5/1 402/6/1 403/7/1 404/8/1
f 405/17/1 406/18/1 407/19/1 408/20/1
f 409/17/1 410/18/1 411/19/1 412/20/1
f 413/1/1 414/2/1 415/3/1 416/4/1
f 417/5/1 418/6/1 419/7/1 420/8/1
f 421/9/1 422/10/1 423/11/1 424/12/1
f 425/9/1 426/10/1 427/11/1 428/12/1
f 429/5/1 430/6/1 431/7/1 432/8/1
f 433/17/1 434/18/1 435/19/1 436/20/1
f 437/17/1 438/18/1 439/19/1 440/20/1
f 441/1/1 442/2/1 443/3/1 444/4/1
f 445/9/1 446/10/1 447/11/1 448/12/1
f 449/5/1 450/6/1 451/7/1 452/8/1
f 453/9/1 454/10/1 455/11/1 456/12/1
f 457/17/1 458/18/1 459/19/1 460/20/1
f 461/1/1 462/2/1 463/3/1 464/4/1
f 465/9/1 466/10/1 467/11/1 468/12/1
f 469/17/1 470/18/1 471/19/1 472/20/1
f 473/1/1 474/2/1 475/3/1 476/4/1
f 477/21/1 478/22/1 479/23/1 480/24/1
f 481/5/1 482/6/1 483/7/1 484/8/1
f 485/17/1 486/18/1 487/19/1 488/20/1
f 489/1/1 490/2/1 491/3/1 492/4/1
f 493/9/1 494/10/1 495/11/1 496/12/1
f 497/17/1 498/18/1 499/19/1 500/20/1
f 501/1/1 502/2/1 503/3/1 504/4/1
f 505/25/1 506/26/1 507/27/1 508/28/1
f 509/25/1 510/26/1 511/27/1 512/28/1
f 513/1/1 514/2/1 515/3/1 516/4/1
f 517/13/1 518/14/1 519/15/1 520/16/1
f 521/13/1 522/14/1 523/15/1 524/16/1
f 525/13/1 526/14/1 527/15/1 528/16/1
f 529/29/1 530/30/1 531/31/1 532/32/1
f 533/29/1 534/30/1 535/31/1 536/32/1
f 537/1/1 538/2/1 539/3/1 540/4/1
f 541/13/1 542/14/1 543/15/1 544/16/1
f 545/13/1 546/14/1 547/15/1 548/16/1
f 549/17/1 550/18/1 551/19/1 552/20/1
f 553/17/1 554/18/1 555/19/1 556/20/1
f 557/17/1 558/18/1 559/19/1 560/20/1
f 561/33/1 562/34/1 563/35/1 564/36/1
f 565/1/1 566/2/1 567/3/1 568/4/1
f 569/13/1 570/14/1 571/15/1 572/16/1
f 573/13/1 574/14/1 575/15/1 576/16/1
f 577/13/1 578/14/1 579/15/1 580/16/1
f 581/13/1 582/14/1 583/15/1 584/16/1
f 585/13/1 586/14/1 587/15/1 588/16/1
f 589/13/1 590/14/1 591/15/1 592/16/1
f 593/13/1 594/14/1 595/15/1 596/16/1
f 597/17/1 598/18/1 599/19/1 600/20/1
f 601/17/1 602/18/1 603/19/1 604/20/1
f 605/17/1 606/18/1 607/19/1 608/20/1
f 609/1/1 610/2/1 611/3/1 612/4/1
f 613/25/1 614/26/1 615/27/1 616/28/1
f 617/25/1 618/26/1 619/27/1 620/28/1
f 621/25/1 622/26/1 623/27/1 624/28/1
f 625/25/1 626/26/1 627/27/1 628/28/1
f 629/25/1 630/26/1 631/27/1 632/28/1
f 633/25/1 634/26/1 635/27/1 636/28/1
f 637/25/1 638/26/1 639/27/1 640/28/1
f 641/25/1 642/26/1 643/27/1 644/28/1
f 645/25/1 646/26/1 647/27/1 648/28/1
f 649/25/1 650/26/1 651/27/1 652/28/1
f 653/17/1 654/18/1 655/19/1 656/20/1
f 657/17/1 658/18/1 659/19/1 660/20/1
f 661/17/1 662/18/1 663/19/1 664/20/1
f 665/17/1 666/18/1 667/19/1 668/20/1
f 669/17/1 670/18/1 671/19/1 672/20/1
f 673/17/1 674/18/1 675/19/1 676/20/1
f 677/17/1 678/18/1 679/19/1 680/20/1
f 681/17/1 682/18/1 683/19/1 684/20/1
f 685/29/1 686/30/1 687/31/1 688/32/1
f 689/29/1 690/30/1 691/31/1 692/32/1
f 693/29/1 694/30/1 695/31/1 696/32/1
f 697/29/1 698/30/1 699/31/1 700/32/1
f 701/29/1 702/30/1 703/31/1 704/32/1
f 705/29/1 706/30/1 707/31/1 708/32/1
f 709/29/1 710/30/1 711/31/1 712/32/1
f 713/29/1 714/30/1 715/31/1 716/32/1
f 717/29/1 718/30/1 719/31/1 720/32/1
f 721/29/1 722/30/1 723/31/1 724/32/1
f 725/25/1 726/26/1 727/27/1 728/28/1
f 729/29/1 730/30/1 731/31/1 732/32/1
f 733/17/1 734/18/1 735/19/1 736/20/1
f 737/17/1 738/18/1 739/19/1 740/20/1

