# Tiled2Unity generated file. Do not modify by hand.
# Wavefront file for 'Level2_mesh_0003.obj'

# Vertices (Count = 112)
v -720 -576 0
v -736 -576 0
v -736 -560 0
v -720 -560 0
v -736 -608 0
v -752 -608 0
v -752 -592 0
v -736 -592 0
v -752 -608 0
v -768 -608 0
v -768 -592 0
v -752 -592 0
v -768 -608 0
v -784 -608 0
v -784 -592 0
v -768 -592 0
v -784 -608 0
v -800 -608 0
v -800 -592 0
v -784 -592 0
v -800 -608 0
v -816 -608 0
v -816 -592 0
v -800 -592 0
v -816 -608 0
v -832 -608 0
v -832 -592 0
v -816 -592 0
v -832 -608 0
v -848 -608 0
v -848 -592 0
v -832 -592 0
v -848 -608 0
v -864 -608 0
v -864 -592 0
v -848 -592 0
v -1024 -624 0
v -1040 -624 0
v -1040 -608 0
v -1024 -608 0
v -736 -640 0
v -752 -640 0
v -752 -624 0
v -736 -624 0
v -752 -640 0
v -768 -640 0
v -768 -624 0
v -752 -624 0
v -768 -640 0
v -784 -640 0
v -784 -624 0
v -768 -624 0
v -784 -640 0
v -800 -640 0
v -800 -624 0
v -784 -624 0
v -800 -640 0
v -816 -640 0
v -816 -624 0
v -800 -624 0
v -816 -640 0
v -832 -640 0
v -832 -624 0
v -816 -624 0
v -832 -640 0
v -848 -640 0
v -848 -624 0
v -832 -624 0
v -848 -640 0
v -864 -640 0
v -864 -624 0
v -848 -624 0
v -736 -672 0
v -752 -672 0
v -752 -656 0
v -736 -656 0
v -752 -672 0
v -768 -672 0
v -768 -656 0
v -752 -656 0
v -768 -672 0
v -784 -672 0
v -784 -656 0
v -768 -656 0
v -784 -672 0
v -800 -672 0
v -800 -656 0
v -784 -656 0
v -800 -672 0
v -816 -672 0
v -816 -656 0
v -800 -656 0
v -816 -672 0
v -832 -672 0
v -832 -656 0
v -816 -656 0
v -832 -672 0
v -848 -672 0
v -848 -656 0
v -832 -656 0
v -848 -672 0
v -864 -672 0
v -864 -656 0
v -848 -656 0
v -704 -768 0
v -720 -768 0
v -720 -752 0
v -704 -752 0
v -800 -768 0
v -816 -768 0
v -816 -752 0
v -800 -752 0

# Texture cooridinates (Count = 20)
vt 0.7200413 0.6140684
vt 0.7365702 0.6140684
vt 0.7365702 0.6444867
vt 0.7200413 0.6444867
vt 0.1053719 0.3878327
vt 0.1219008 0.3878327
vt 0.1219008 0.418251
vt 0.1053719 0.418251
vt 0.1580579 0.5171102
vt 0.1745868 0.5171102
vt 0.1745868 0.5475285
vt 0.1580579 0.5475285
vt 0.2809917 0.3878327
vt 0.2975207 0.3878327
vt 0.2975207 0.418251
vt 0.2809917 0.418251
vt 0.2985537 0.743346
vt 0.3150826 0.743346
vt 0.3150826 0.7737643
vt 0.2985537 0.7737643

# Normal
vn 0 0 -1

# Mesh description
g Level2_mesh_0003

# Faces
f 1/1/1 2/2/1 3/3/1 4/4/1
f 5/5/1 6/6/1 7/7/1 8/8/1
f 9/9/1 10/10/1 11/11/1 12/12/1
f 13/9/1 14/10/1 15/11/1 16/12/1
f 17/9/1 18/10/1 19/11/1 20/12/1
f 21/9/1 22/10/1 23/11/1 24/12/1
f 25/9/1 26/10/1 27/11/1 28/12/1
f 29/9/1 30/10/1 31/11/1 32/12/1
f 33/9/1 34/10/1 35/11/1 36/12/1
f 37/13/1 38/14/1 39/15/1 40/16/1
f 41/5/1 42/6/1 43/7/1 44/8/1
f 45/9/1 46/10/1 47/11/1 48/12/1
f 49/9/1 50/10/1 51/11/1 52/12/1
f 53/9/1 54/10/1 55/11/1 56/12/1
f 57/9/1 58/10/1 59/11/1 60/12/1
f 61/9/1 62/10/1 63/11/1 64/12/1
f 65/9/1 66/10/1 67/11/1 68/12/1
f 69/9/1 70/10/1 71/11/1 72/12/1
f 73/5/1 74/6/1 75/7/1 76/8/1
f 77/9/1 78/10/1 79/11/1 80/12/1
f 81/9/1 82/10/1 83/11/1 84/12/1
f 85/9/1 86/10/1 87/11/1 88/12/1
f 89/9/1 90/10/1 91/11/1 92/12/1
f 93/9/1 94/10/1 95/11/1 96/12/1
f 97/9/1 98/10/1 99/11/1 100/12/1
f 101/9/1 102/10/1 103/11/1 104/12/1
f 105/17/1 106/18/1 107/19/1 108/20/1
f 109/1/1 110/2/1 111/3/1 112/4/1

