# Tiled2Unity generated file. Do not modify by hand.
# Wavefront file for 'Dungeon1_mesh_0005.obj'

# Vertices (Count = 24)
v -64 -32 0
v -80 -32 0
v -80 -16 0
v -64 -16 0
v -192 -32 0
v -208 -32 0
v -208 -16 0
v -192 -16 0
v -176 -96 0
v -192 -96 0
v -192 -80 0
v -176 -80 0
v -224 -96 0
v -240 -96 0
v -240 -80 0
v -224 -80 0
v -32 -160 0
v -48 -160 0
v -48 -144 0
v -32 -144 0
v -64 -160 0
v -80 -160 0
v -80 -144 0
v -64 -144 0

# Texture cooridinates (Count = 4)
vt 0 0.5909091
vt 0.125 0.5909091
vt 0.125 0.6363636
vt 0 0.6363636

# Normal
vn 0 0 -1

# Mesh description
g Dungeon1_mesh_0005

# Faces
f 1/1/1 2/2/1 3/3/1 4/4/1
f 5/1/1 6/2/1 7/3/1 8/4/1
f 9/1/1 10/2/1 11/3/1 12/4/1
f 13/1/1 14/2/1 15/3/1 16/4/1
f 17/1/1 18/2/1 19/3/1 20/4/1
f 21/1/1 22/2/1 23/3/1 24/4/1

