# Tiled2Unity generated file. Do not modify by hand.
# Wavefront file for 'map_mesh_0002.obj'

# Vertices (Count = 448)
v -576 -464 0
v -592 -464 0
v -592 -448 0
v -576 -448 0
v -560 -464 0
v -576 -464 0
v -576 -448 0
v -560 -448 0
v -544 -464 0
v -560 -464 0
v -560 -448 0
v -544 -448 0
v -528 -464 0
v -544 -464 0
v -544 -448 0
v -528 -448 0
v -512 -464 0
v -528 -464 0
v -528 -448 0
v -512 -448 0
v -496 -464 0
v -512 -464 0
v -512 -448 0
v -496 -448 0
v -480 -464 0
v -496 -464 0
v -496 -448 0
v -480 -448 0
v -464 -464 0
v -480 -464 0
v -480 -448 0
v -464 -448 0
v -576 -480 0
v -592 -480 0
v -592 -464 0
v -576 -464 0
v -560 -480 0
v -576 -480 0
v -576 -464 0
v -560 -464 0
v -544 -480 0
v -560 -480 0
v -560 -464 0
v -544 -464 0
v -528 -480 0
v -544 -480 0
v -544 -464 0
v -528 -464 0
v -512 -480 0
v -528 -480 0
v -528 -464 0
v -512 -464 0
v -496 -480 0
v -512 -480 0
v -512 -464 0
v -496 -464 0
v -480 -480 0
v -496 -480 0
v -496 -464 0
v -480 -464 0
v -464 -480 0
v -480 -480 0
v -480 -464 0
v -464 -464 0
v -576 -496 0
v -592 -496 0
v -592 -480 0
v -576 -480 0
v -560 -496 0
v -576 -496 0
v -576 -480 0
v -560 -480 0
v -544 -496 0
v -560 -496 0
v -560 -480 0
v -544 -480 0
v -528 -496 0
v -544 -496 0
v -544 -480 0
v -528 -480 0
v -512 -496 0
v -528 -496 0
v -528 -480 0
v -512 -480 0
v -496 -496 0
v -512 -496 0
v -512 -480 0
v -496 -480 0
v -480 -496 0
v -496 -496 0
v -496 -480 0
v -480 -480 0
v -464 -496 0
v -480 -496 0
v -480 -480 0
v -464 -480 0
v -448 -496 0
v -464 -496 0
v -464 -480 0
v -448 -480 0
v -400 -496 0
v -416 -496 0
v -416 -480 0
v -400 -480 0
v -576 -512 0
v -592 -512 0
v -592 -496 0
v -576 -496 0
v -560 -512 0
v -576 -512 0
v -576 -496 0
v -560 -496 0
v -544 -512 0
v -560 -512 0
v -560 -496 0
v -544 -496 0
v -528 -512 0
v -544 -512 0
v -544 -496 0
v -528 -496 0
v -512 -512 0
v -528 -512 0
v -528 -496 0
v -512 -496 0
v -496 -512 0
v -512 -512 0
v -512 -496 0
v -496 -496 0
v -480 -512 0
v -496 -512 0
v -496 -496 0
v -480 -496 0
v -464 -512 0
v -480 -512 0
v -480 -496 0
v -464 -496 0
v -448 -512 0
v -464 -512 0
v -464 -496 0
v -448 -496 0
v -432 -512 0
v -448 -512 0
v -448 -496 0
v -432 -496 0
v -416 -512 0
v -432 -512 0
v -432 -496 0
v -416 -496 0
v -400 -512 0
v -416 -512 0
v -416 -496 0
v -400 -496 0
v -576 -528 0
v -592 -528 0
v -592 -512 0
v -576 -512 0
v -560 -528 0
v -576 -528 0
v -576 -512 0
v -560 -512 0
v -544 -528 0
v -560 -528 0
v -560 -512 0
v -544 -512 0
v -528 -528 0
v -544 -528 0
v -544 -512 0
v -528 -512 0
v -512 -528 0
v -528 -528 0
v -528 -512 0
v -512 -512 0
v -496 -528 0
v -512 -528 0
v -512 -512 0
v -496 -512 0
v -480 -528 0
v -496 -528 0
v -496 -512 0
v -480 -512 0
v -464 -528 0
v -480 -528 0
v -480 -512 0
v -464 -512 0
v -448 -528 0
v -464 -528 0
v -464 -512 0
v -448 -512 0
v -432 -528 0
v -448 -528 0
v -448 -512 0
v -432 -512 0
v -416 -528 0
v -432 -528 0
v -432 -512 0
v -416 -512 0
v -400 -528 0
v -416 -528 0
v -416 -512 0
v -400 -512 0
v -576 -544 0
v -592 -544 0
v -592 -528 0
v -576 -528 0
v -560 -544 0
v -576 -544 0
v -576 -528 0
v -560 -528 0
v -544 -544 0
v -560 -544 0
v -560 -528 0
v -544 -528 0
v -528 -544 0
v -544 -544 0
v -544 -528 0
v -528 -528 0
v -512 -544 0
v -528 -544 0
v -528 -528 0
v -512 -528 0
v -496 -544 0
v -512 -544 0
v -512 -528 0
v -496 -528 0
v -480 -544 0
v -496 -544 0
v -496 -528 0
v -480 -528 0
v -464 -544 0
v -480 -544 0
v -480 -528 0
v -464 -528 0
v -448 -544 0
v -464 -544 0
v -464 -528 0
v -448 -528 0
v -432 -544 0
v -448 -544 0
v -448 -528 0
v -432 -528 0
v -416 -544 0
v -432 -544 0
v -432 -528 0
v -416 -528 0
v -400 -544 0
v -416 -544 0
v -416 -528 0
v -400 -528 0
v -576 -560 0
v -592 -560 0
v -592 -544 0
v -576 -544 0
v -560 -560 0
v -576 -560 0
v -576 -544 0
v -560 -544 0
v -544 -560 0
v -560 -560 0
v -560 -544 0
v -544 -544 0
v -528 -560 0
v -544 -560 0
v -544 -544 0
v -528 -544 0
v -512 -560 0
v -528 -560 0
v -528 -544 0
v -512 -544 0
v -496 -560 0
v -512 -560 0
v -512 -544 0
v -496 -544 0
v -480 -560 0
v -496 -560 0
v -496 -544 0
v -480 -544 0
v -464 -560 0
v -480 -560 0
v -480 -544 0
v -464 -544 0
v -448 -560 0
v -464 -560 0
v -464 -544 0
v -448 -544 0
v -432 -560 0
v -448 -560 0
v -448 -544 0
v -432 -544 0
v -416 -560 0
v -432 -560 0
v -432 -544 0
v -416 -544 0
v -400 -560 0
v -416 -560 0
v -416 -544 0
v -400 -544 0
v -576 -576 0
v -592 -576 0
v -592 -560 0
v -576 -560 0
v -560 -576 0
v -576 -576 0
v -576 -560 0
v -560 -560 0
v -544 -576 0
v -560 -576 0
v -560 -560 0
v -544 -560 0
v -528 -576 0
v -544 -576 0
v -544 -560 0
v -528 -560 0
v -512 -576 0
v -528 -576 0
v -528 -560 0
v -512 -560 0
v -496 -576 0
v -512 -576 0
v -512 -560 0
v -496 -560 0
v -480 -576 0
v -496 -576 0
v -496 -560 0
v -480 -560 0
v -464 -576 0
v -480 -576 0
v -480 -560 0
v -464 -560 0
v -448 -576 0
v -464 -576 0
v -464 -560 0
v -448 -560 0
v -432 -576 0
v -448 -576 0
v -448 -560 0
v -432 -560 0
v -416 -576 0
v -432 -576 0
v -432 -560 0
v -416 -560 0
v -400 -576 0
v -416 -576 0
v -416 -560 0
v -400 -560 0
v -576 -592 0
v -592 -592 0
v -592 -576 0
v -576 -576 0
v -560 -592 0
v -576 -592 0
v -576 -576 0
v -560 -576 0
v -544 -592 0
v -560 -592 0
v -560 -576 0
v -544 -576 0
v -528 -592 0
v -544 -592 0
v -544 -576 0
v -528 -576 0
v -512 -592 0
v -528 -592 0
v -528 -576 0
v -512 -576 0
v -496 -592 0
v -512 -592 0
v -512 -576 0
v -496 -576 0
v -480 -592 0
v -496 -592 0
v -496 -576 0
v -480 -576 0
v -464 -592 0
v -480 -592 0
v -480 -576 0
v -464 -576 0
v -576 -608 0
v -592 -608 0
v -592 -592 0
v -576 -592 0
v -560 -608 0
v -576 -608 0
v -576 -592 0
v -560 -592 0
v -544 -608 0
v -560 -608 0
v -560 -592 0
v -544 -592 0
v -528 -608 0
v -544 -608 0
v -544 -592 0
v -528 -592 0
v -512 -608 0
v -528 -608 0
v -528 -592 0
v -512 -592 0
v -496 -608 0
v -512 -608 0
v -512 -592 0
v -496 -592 0
v -480 -608 0
v -496 -608 0
v -496 -592 0
v -480 -592 0
v -576 -624 0
v -592 -624 0
v -592 -608 0
v -576 -608 0
v -560 -624 0
v -576 -624 0
v -576 -608 0
v -560 -608 0
v -544 -624 0
v -560 -624 0
v -560 -608 0
v -544 -608 0
v -528 -624 0
v -544 -624 0
v -544 -608 0
v -528 -608 0
v -512 -624 0
v -528 -624 0
v -528 -608 0
v -512 -608 0
v -576 -640 0
v -592 -640 0
v -592 -624 0
v -576 -624 0
v -560 -640 0
v -576 -640 0
v -576 -624 0
v -560 -624 0
v -544 -640 0
v -560 -640 0
v -560 -624 0
v -544 -624 0
v -576 -656 0
v -592 -656 0
v -592 -640 0
v -576 -640 0
v -560 -656 0
v -576 -656 0
v -576 -640 0
v -560 -640 0
v -544 -656 0
v -560 -656 0
v -560 -640 0
v -544 -640 0

# Texture cooridinates (Count = 44)
vt 0.1580579 0.6787072
vt 0.1745868 0.6787072
vt 0.1745868 0.7091255
vt 0.1580579 0.7091255
vt 0.1404959 0.6787072
vt 0.1570248 0.6787072
vt 0.1570248 0.7091255
vt 0.1404959 0.7091255
vt 0.1229339 0.6787072
vt 0.1394628 0.6787072
vt 0.1394628 0.7091255
vt 0.1229339 0.7091255
vt 0.1580579 0.6463878
vt 0.1745868 0.6463878
vt 0.1745868 0.6768061
vt 0.1580579 0.6768061
vt 0.1404959 0.6463878
vt 0.1570248 0.6463878
vt 0.1570248 0.6768061
vt 0.1404959 0.6768061
vt 0.1229339 0.6463878
vt 0.1394628 0.6463878
vt 0.1394628 0.6768061
vt 0.1229339 0.6768061
vt 0.08780992 0.9695817
vt 0.1043388 0.9695817
vt 0.1043388 1
vt 0.08780992 1
vt 0.1404959 0.6140684
vt 0.1570248 0.6140684
vt 0.1570248 0.6444867
vt 0.1404959 0.6444867
vt 0.1229339 0.6140684
vt 0.1394628 0.6140684
vt 0.1394628 0.6444867
vt 0.1229339 0.6444867
vt 0.08780992 0.9372624
vt 0.1043388 0.9372624
vt 0.1043388 0.9676806
vt 0.08780992 0.9676806
vt 0.1580579 0.6140684
vt 0.1745868 0.6140684
vt 0.1745868 0.6444867
vt 0.1580579 0.6444867

# Normal
vn 0 0 -1

# Mesh description
g map_mesh_0002

# Faces
f 1/1/1 2/2/1 3/3/1 4/4/1
f 5/5/1 6/6/1 7/7/1 8/8/1
f 9/5/1 10/6/1 11/7/1 12/8/1
f 13/5/1 14/6/1 15/7/1 16/8/1
f 17/5/1 18/6/1 19/7/1 20/8/1
f 21/5/1 22/6/1 23/7/1 24/8/1
f 25/5/1 26/6/1 27/7/1 28/8/1
f 29/9/1 30/10/1 31/11/1 32/12/1
f 33/13/1 34/14/1 35/15/1 36/16/1
f 37/17/1 38/18/1 39/19/1 40/20/1
f 41/17/1 42/18/1 43/19/1 44/20/1
f 45/17/1 46/18/1 47/19/1 48/20/1
f 49/17/1 50/18/1 51/19/1 52/20/1
f 53/17/1 54/18/1 55/19/1 56/20/1
f 57/17/1 58/18/1 59/19/1 60/20/1
f 61/21/1 62/22/1 63/23/1 64/24/1
f 65/13/1 66/14/1 67/15/1 68/16/1
f 69/17/1 70/18/1 71/19/1 72/20/1
f 73/17/1 74/18/1 75/19/1 76/20/1
f 77/17/1 78/18/1 79/19/1 80/20/1
f 81/17/1 82/18/1 83/19/1 84/20/1
f 85/17/1 86/18/1 87/19/1 88/20/1
f 89/17/1 90/18/1 91/19/1 92/20/1
f 93/17/1 94/18/1 95/19/1 96/20/1
f 97/9/1 98/10/1 99/11/1 100/12/1
f 101/25/1 102/26/1 103/27/1 104/28/1
f 105/13/1 106/14/1 107/15/1 108/16/1
f 109/17/1 110/18/1 111/19/1 112/20/1
f 113/17/1 114/18/1 115/19/1 116/20/1
f 117/17/1 118/18/1 119/19/1 120/20/1
f 121/17/1 122/18/1 123/19/1 124/20/1
f 125/17/1 126/18/1 127/19/1 128/20/1
f 129/17/1 130/18/1 131/19/1 132/20/1
f 133/17/1 134/18/1 135/19/1 136/20/1
f 137/17/1 138/18/1 139/19/1 140/20/1
f 141/5/1 142/6/1 143/7/1 144/8/1
f 145/5/1 146/6/1 147/7/1 148/8/1
f 149/9/1 150/10/1 151/11/1 152/12/1
f 153/13/1 154/14/1 155/15/1 156/16/1
f 157/17/1 158/18/1 159/19/1 160/20/1
f 161/17/1 162/18/1 163/19/1 164/20/1
f 165/17/1 166/18/1 167/19/1 168/20/1
f 169/17/1 170/18/1 171/19/1 172/20/1
f 173/17/1 174/18/1 175/19/1 176/20/1
f 177/17/1 178/18/1 179/19/1 180/20/1
f 181/17/1 182/18/1 183/19/1 184/20/1
f 185/17/1 186/18/1 187/19/1 188/20/1
f 189/17/1 190/18/1 191/19/1 192/20/1
f 193/17/1 194/18/1 195/19/1 196/20/1
f 197/21/1 198/22/1 199/23/1 200/24/1
f 201/13/1 202/14/1 203/15/1 204/16/1
f 205/17/1 206/18/1 207/19/1 208/20/1
f 209/17/1 210/18/1 211/19/1 212/20/1
f 213/17/1 214/18/1 215/19/1 216/20/1
f 217/17/1 218/18/1 219/19/1 220/20/1
f 221/17/1 222/18/1 223/19/1 224/20/1
f 225/17/1 226/18/1 227/19/1 228/20/1
f 229/17/1 230/18/1 231/19/1 232/20/1
f 233/17/1 234/18/1 235/19/1 236/20/1
f 237/17/1 238/18/1 239/19/1 240/20/1
f 241/17/1 242/18/1 243/19/1 244/20/1
f 245/21/1 246/22/1 247/23/1 248/24/1
f 249/13/1 250/14/1 251/15/1 252/16/1
f 253/17/1 254/18/1 255/19/1 256/20/1
f 257/17/1 258/18/1 259/19/1 260/20/1
f 261/17/1 262/18/1 263/19/1 264/20/1
f 265/17/1 266/18/1 267/19/1 268/20/1
f 269/17/1 270/18/1 271/19/1 272/20/1
f 273/17/1 274/18/1 275/19/1 276/20/1
f 277/17/1 278/18/1 279/19/1 280/20/1
f 281/17/1 282/18/1 283/19/1 284/20/1
f 285/17/1 286/18/1 287/19/1 288/20/1
f 289/17/1 290/18/1 291/19/1 292/20/1
f 293/21/1 294/22/1 295/23/1 296/24/1
f 297/13/1 298/14/1 299/15/1 300/16/1
f 301/17/1 302/18/1 303/19/1 304/20/1
f 305/17/1 306/18/1 307/19/1 308/20/1
f 309/17/1 310/18/1 311/19/1 312/20/1
f 313/17/1 314/18/1 315/19/1 316/20/1
f 317/17/1 318/18/1 319/19/1 320/20/1
f 321/17/1 322/18/1 323/19/1 324/20/1
f 325/17/1 326/18/1 327/19/1 328/20/1
f 329/29/1 330/30/1 331/31/1 332/32/1
f 333/29/1 334/30/1 335/31/1 336/32/1
f 337/29/1 338/30/1 339/31/1 340/32/1
f 341/33/1 342/34/1 343/35/1 344/36/1
f 345/13/1 346/14/1 347/15/1 348/16/1
f 349/17/1 350/18/1 351/19/1 352/20/1
f 353/17/1 354/18/1 355/19/1 356/20/1
f 357/17/1 358/18/1 359/19/1 360/20/1
f 361/17/1 362/18/1 363/19/1 364/20/1
f 365/17/1 366/18/1 367/19/1 368/20/1
f 369/17/1 370/18/1 371/19/1 372/20/1
f 373/33/1 374/34/1 375/35/1 376/36/1
f 377/13/1 378/14/1 379/15/1 380/16/1
f 381/17/1 382/18/1 383/19/1 384/20/1
f 385/17/1 386/18/1 387/19/1 388/20/1
f 389/17/1 390/18/1 391/19/1 392/20/1
f 393/29/1 394/30/1 395/31/1 396/32/1
f 397/29/1 398/30/1 399/31/1 400/32/1
f 401/33/1 402/34/1 403/35/1 404/36/1
f 405/13/1 406/14/1 407/15/1 408/16/1
f 409/17/1 410/18/1 411/19/1 412/20/1
f 413/17/1 414/18/1 415/19/1 416/20/1
f 417/33/1 418/34/1 419/35/1 420/36/1
f 421/37/1 422/38/1 423/39/1 424/40/1
f 425/13/1 426/14/1 427/15/1 428/16/1
f 429/17/1 430/18/1 431/19/1 432/20/1
f 433/21/1 434/22/1 435/23/1 436/24/1
f 437/41/1 438/42/1 439/43/1 440/44/1
f 441/29/1 442/30/1 443/31/1 444/32/1
f 445/33/1 446/34/1 447/35/1 448/36/1

