# Tiled2Unity generated file. Do not modify by hand.
# Wavefront file for 'map_mesh_0004.obj'

# Vertices (Count = 16)
v -160 -672 0
v -176 -672 0
v -176 -656 0
v -160 -656 0
v -176 -688 0
v -192 -688 0
v -192 -672 0
v -176 -672 0
v -160 -688 0
v -176 -688 0
v -176 -672 0
v -160 -672 0
v -160 -704 0
v -176 -704 0
v -176 -688 0
v -160 -688 0

# Texture cooridinates (Count = 16)
vt 0.7376033 0.8079848
vt 0.7541322 0.8079848
vt 0.7541322 0.838403
vt 0.7376033 0.838403
vt 0.7024794 0.8403042
vt 0.7190083 0.8403042
vt 0.7190083 0.8707224
vt 0.7024794 0.8707224
vt 0.6497934 0.8726236
vt 0.6663223 0.8726236
vt 0.6663223 0.9030418
vt 0.6497934 0.9030418
vt 0.08780992 0.4201521
vt 0.1043388 0.4201521
vt 0.1043388 0.4505703
vt 0.08780992 0.4505703

# Normal
vn 0 0 -1

# Mesh description
g map_mesh_0004

# Faces
f 1/1/1 2/2/1 3/3/1 4/4/1
f 5/5/1 6/6/1 7/7/1 8/8/1
f 9/9/1 10/10/1 11/11/1 12/12/1
f 13/13/1 14/14/1 15/15/1 16/16/1

