# Tiled2Unity generated file. Do not modify by hand.
# Wavefront file for 'Level1_mesh_0002.obj'

# Vertices (Count = 704)
v -368 -512 0
v -384 -512 0
v -384 -496 0
v -368 -496 0
v -384 -512 0
v -400 -512 0
v -400 -496 0
v -384 -496 0
v -400 -512 0
v -416 -512 0
v -416 -496 0
v -400 -496 0
v -416 -512 0
v -432 -512 0
v -432 -496 0
v -416 -496 0
v -432 -512 0
v -448 -512 0
v -448 -496 0
v -432 -496 0
v -448 -512 0
v -464 -512 0
v -464 -496 0
v -448 -496 0
v -464 -512 0
v -480 -512 0
v -480 -496 0
v -464 -496 0
v -480 -512 0
v -496 -512 0
v -496 -496 0
v -480 -496 0
v -496 -512 0
v -512 -512 0
v -512 -496 0
v -496 -496 0
v -368 -528 0
v -384 -528 0
v -384 -512 0
v -368 -512 0
v -384 -528 0
v -400 -528 0
v -400 -512 0
v -384 -512 0
v -400 -528 0
v -416 -528 0
v -416 -512 0
v -400 -512 0
v -416 -528 0
v -432 -528 0
v -432 -512 0
v -416 -512 0
v -432 -528 0
v -448 -528 0
v -448 -512 0
v -432 -512 0
v -448 -528 0
v -464 -528 0
v -464 -512 0
v -448 -512 0
v -464 -528 0
v -480 -528 0
v -480 -512 0
v -464 -512 0
v -480 -528 0
v -496 -528 0
v -496 -512 0
v -480 -512 0
v -496 -528 0
v -512 -528 0
v -512 -512 0
v -496 -512 0
v -512 -528 0
v -528 -528 0
v -528 -512 0
v -512 -512 0
v -528 -528 0
v -544 -528 0
v -544 -512 0
v -528 -512 0
v -368 -544 0
v -384 -544 0
v -384 -528 0
v -368 -528 0
v -384 -544 0
v -400 -544 0
v -400 -528 0
v -384 -528 0
v -400 -544 0
v -416 -544 0
v -416 -528 0
v -400 -528 0
v -416 -544 0
v -432 -544 0
v -432 -528 0
v -416 -528 0
v -448 -544 0
v -464 -544 0
v -464 -528 0
v -448 -528 0
v -624 -544 0
v -640 -544 0
v -640 -528 0
v -624 -528 0
v -640 -544 0
v -656 -544 0
v -656 -528 0
v -640 -528 0
v -656 -544 0
v -672 -544 0
v -672 -528 0
v -656 -528 0
v -672 -544 0
v -688 -544 0
v -688 -528 0
v -672 -528 0
v -368 -560 0
v -384 -560 0
v -384 -544 0
v -368 -544 0
v -384 -560 0
v -400 -560 0
v -400 -544 0
v -384 -544 0
v -400 -560 0
v -416 -560 0
v -416 -544 0
v -400 -544 0
v -672 -560 0
v -688 -560 0
v -688 -544 0
v -672 -544 0
v -368 -576 0
v -384 -576 0
v -384 -560 0
v -368 -560 0
v -384 -576 0
v -400 -576 0
v -400 -560 0
v -384 -560 0
v -400 -576 0
v -416 -576 0
v -416 -560 0
v -400 -560 0
v -672 -576 0
v -688 -576 0
v -688 -560 0
v -672 -560 0
v -368 -592 0
v -384 -592 0
v -384 -576 0
v -368 -576 0
v -384 -592 0
v -400 -592 0
v -400 -576 0
v -384 -576 0
v -400 -592 0
v -416 -592 0
v -416 -576 0
v -400 -576 0
v -672 -592 0
v -688 -592 0
v -688 -576 0
v -672 -576 0
v -368 -608 0
v -384 -608 0
v -384 -592 0
v -368 -592 0
v -384 -608 0
v -400 -608 0
v -400 -592 0
v -384 -592 0
v -400 -608 0
v -416 -608 0
v -416 -592 0
v -400 -592 0
v -544 -608 0
v -560 -608 0
v -560 -592 0
v -544 -592 0
v -672 -608 0
v -688 -608 0
v -688 -592 0
v -672 -592 0
v -368 -624 0
v -384 -624 0
v -384 -608 0
v -368 -608 0
v -384 -624 0
v -400 -624 0
v -400 -608 0
v -384 -608 0
v -400 -624 0
v -416 -624 0
v -416 -608 0
v -400 -608 0
v -544 -624 0
v -560 -624 0
v -560 -608 0
v -544 -608 0
v -672 -624 0
v -688 -624 0
v -688 -608 0
v -672 -608 0
v -368 -640 0
v -384 -640 0
v -384 -624 0
v -368 -624 0
v -384 -640 0
v -400 -640 0
v -400 -624 0
v -384 -624 0
v -400 -640 0
v -416 -640 0
v -416 -624 0
v -400 -624 0
v -480 -640 0
v -496 -640 0
v -496 -624 0
v -480 -624 0
v -544 -640 0
v -560 -640 0
v -560 -624 0
v -544 -624 0
v -672 -640 0
v -688 -640 0
v -688 -624 0
v -672 -624 0
v -368 -656 0
v -384 -656 0
v -384 -640 0
v -368 -640 0
v -384 -656 0
v -400 -656 0
v -400 -640 0
v -384 -640 0
v -400 -656 0
v -416 -656 0
v -416 -640 0
v -400 -640 0
v -416 -656 0
v -432 -656 0
v -432 -640 0
v -416 -640 0
v -432 -656 0
v -448 -656 0
v -448 -640 0
v -432 -640 0
v -448 -656 0
v -464 -656 0
v -464 -640 0
v -448 -640 0
v -464 -656 0
v -480 -656 0
v -480 -640 0
v -464 -640 0
v -480 -656 0
v -496 -656 0
v -496 -640 0
v -480 -640 0
v -496 -656 0
v -512 -656 0
v -512 -640 0
v -496 -640 0
v -512 -656 0
v -528 -656 0
v -528 -640 0
v -512 -640 0
v -528 -656 0
v -544 -656 0
v -544 -640 0
v -528 -640 0
v -544 -656 0
v -560 -656 0
v -560 -640 0
v -544 -640 0
v -560 -656 0
v -576 -656 0
v -576 -640 0
v -560 -640 0
v -576 -656 0
v -592 -656 0
v -592 -640 0
v -576 -640 0
v -592 -656 0
v -608 -656 0
v -608 -640 0
v -592 -640 0
v -608 -656 0
v -624 -656 0
v -624 -640 0
v -608 -640 0
v -624 -656 0
v -640 -656 0
v -640 -640 0
v -624 -640 0
v -640 -656 0
v -656 -656 0
v -656 -640 0
v -640 -640 0
v -656 -656 0
v -672 -656 0
v -672 -640 0
v -656 -640 0
v -672 -656 0
v -688 -656 0
v -688 -640 0
v -672 -640 0
v -688 -656 0
v -704 -656 0
v -704 -640 0
v -688 -640 0
v -704 -656 0
v -720 -656 0
v -720 -640 0
v -704 -640 0
v -720 -656 0
v -736 -656 0
v -736 -640 0
v -720 -640 0
v -736 -656 0
v -752 -656 0
v -752 -640 0
v -736 -640 0
v -368 -672 0
v -384 -672 0
v -384 -656 0
v -368 -656 0
v -384 -672 0
v -400 -672 0
v -400 -656 0
v -384 -656 0
v -400 -672 0
v -416 -672 0
v -416 -656 0
v -400 -656 0
v -416 -672 0
v -432 -672 0
v -432 -656 0
v -416 -656 0
v -432 -672 0
v -448 -672 0
v -448 -656 0
v -432 -656 0
v -448 -672 0
v -464 -672 0
v -464 -656 0
v -448 -656 0
v -464 -672 0
v -480 -672 0
v -480 -656 0
v -464 -656 0
v -480 -672 0
v -496 -672 0
v -496 -656 0
v -480 -656 0
v -496 -672 0
v -512 -672 0
v -512 -656 0
v -496 -656 0
v -512 -672 0
v -528 -672 0
v -528 -656 0
v -512 -656 0
v -528 -672 0
v -544 -672 0
v -544 -656 0
v -528 -656 0
v -544 -672 0
v -560 -672 0
v -560 -656 0
v -544 -656 0
v -560 -672 0
v -576 -672 0
v -576 -656 0
v -560 -656 0
v -576 -672 0
v -592 -672 0
v -592 -656 0
v -576 -656 0
v -592 -672 0
v -608 -672 0
v -608 -656 0
v -592 -656 0
v -608 -672 0
v -624 -672 0
v -624 -656 0
v -608 -656 0
v -368 -688 0
v -384 -688 0
v -384 -672 0
v -368 -672 0
v -384 -688 0
v -400 -688 0
v -400 -672 0
v -384 -672 0
v -400 -688 0
v -416 -688 0
v -416 -672 0
v -400 -672 0
v -416 -688 0
v -432 -688 0
v -432 -672 0
v -416 -672 0
v -432 -688 0
v -448 -688 0
v -448 -672 0
v -432 -672 0
v -448 -688 0
v -464 -688 0
v -464 -672 0
v -448 -672 0
v -464 -688 0
v -480 -688 0
v -480 -672 0
v -464 -672 0
v -480 -688 0
v -496 -688 0
v -496 -672 0
v -480 -672 0
v -496 -688 0
v -512 -688 0
v -512 -672 0
v -496 -672 0
v -512 -688 0
v -528 -688 0
v -528 -672 0
v -512 -672 0
v -528 -688 0
v -544 -688 0
v -544 -672 0
v -528 -672 0
v -544 -688 0
v -560 -688 0
v -560 -672 0
v -544 -672 0
v -560 -688 0
v -576 -688 0
v -576 -672 0
v -560 -672 0
v -576 -688 0
v -592 -688 0
v -592 -672 0
v -576 -672 0
v -592 -688 0
v -608 -688 0
v -608 -672 0
v -592 -672 0
v -608 -688 0
v -624 -688 0
v -624 -672 0
v -608 -672 0
v -368 -704 0
v -384 -704 0
v -384 -688 0
v -368 -688 0
v -384 -704 0
v -400 -704 0
v -400 -688 0
v -384 -688 0
v -400 -704 0
v -416 -704 0
v -416 -688 0
v -400 -688 0
v -416 -704 0
v -432 -704 0
v -432 -688 0
v -416 -688 0
v -432 -704 0
v -448 -704 0
v -448 -688 0
v -432 -688 0
v -448 -704 0
v -464 -704 0
v -464 -688 0
v -448 -688 0
v -464 -704 0
v -480 -704 0
v -480 -688 0
v -464 -688 0
v -480 -704 0
v -496 -704 0
v -496 -688 0
v -480 -688 0
v -496 -704 0
v -512 -704 0
v -512 -688 0
v -496 -688 0
v -512 -704 0
v -528 -704 0
v -528 -688 0
v -512 -688 0
v -528 -704 0
v -544 -704 0
v -544 -688 0
v -528 -688 0
v -544 -704 0
v -560 -704 0
v -560 -688 0
v -544 -688 0
v -368 -720 0
v -384 -720 0
v -384 -704 0
v -368 -704 0
v -384 -720 0
v -400 -720 0
v -400 -704 0
v -384 -704 0
v -400 -720 0
v -416 -720 0
v -416 -704 0
v -400 -704 0
v -416 -720 0
v -432 -720 0
v -432 -704 0
v -416 -704 0
v -432 -720 0
v -448 -720 0
v -448 -704 0
v -432 -704 0
v -448 -720 0
v -464 -720 0
v -464 -704 0
v -448 -704 0
v -464 -720 0
v -480 -720 0
v -480 -704 0
v -464 -704 0
v -480 -720 0
v -496 -720 0
v -496 -704 0
v -480 -704 0
v -496 -720 0
v -512 -720 0
v -512 -704 0
v -496 -704 0
v -512 -720 0
v -528 -720 0
v -528 -704 0
v -512 -704 0
v -528 -720 0
v -544 -720 0
v -544 -704 0
v -528 -704 0
v -544 -720 0
v -560 -720 0
v -560 -704 0
v -544 -704 0
v -368 -736 0
v -384 -736 0
v -384 -720 0
v -368 -720 0
v -384 -736 0
v -400 -736 0
v -400 -720 0
v -384 -720 0
v -400 -736 0
v -416 -736 0
v -416 -720 0
v -400 -720 0
v -416 -736 0
v -432 -736 0
v -432 -720 0
v -416 -720 0
v -432 -736 0
v -448 -736 0
v -448 -720 0
v -432 -720 0
v -448 -736 0
v -464 -736 0
v -464 -720 0
v -448 -720 0
v -464 -736 0
v -480 -736 0
v -480 -720 0
v -464 -720 0
v -480 -736 0
v -496 -736 0
v -496 -720 0
v -480 -720 0
v -496 -736 0
v -512 -736 0
v -512 -720 0
v -496 -720 0
v -512 -736 0
v -528 -736 0
v -528 -720 0
v -512 -720 0
v -528 -736 0
v -544 -736 0
v -544 -720 0
v -528 -720 0
v -544 -736 0
v -560 -736 0
v -560 -720 0
v -544 -720 0
v -368 -752 0
v -384 -752 0
v -384 -736 0
v -368 -736 0
v -384 -752 0
v -400 -752 0
v -400 -736 0
v -384 -736 0
v -400 -752 0
v -416 -752 0
v -416 -736 0
v -400 -736 0
v -416 -752 0
v -432 -752 0
v -432 -736 0
v -416 -736 0
v -432 -752 0
v -448 -752 0
v -448 -736 0
v -432 -736 0
v -448 -752 0
v -464 -752 0
v -464 -736 0
v -448 -736 0
v -464 -752 0
v -480 -752 0
v -480 -736 0
v -464 -736 0
v -480 -752 0
v -496 -752 0
v -496 -736 0
v -480 -736 0
v -496 -752 0
v -512 -752 0
v -512 -736 0
v -496 -736 0
v -512 -752 0
v -528 -752 0
v -528 -736 0
v -512 -736 0
v -528 -752 0
v -544 -752 0
v -544 -736 0
v -528 -736 0
v -544 -752 0
v -560 -752 0
v -560 -736 0
v -544 -736 0
v -368 -768 0
v -384 -768 0
v -384 -752 0
v -368 -752 0
v -384 -768 0
v -400 -768 0
v -400 -752 0
v -384 -752 0
v -400 -768 0
v -416 -768 0
v -416 -752 0
v -400 -752 0
v -416 -768 0
v -432 -768 0
v -432 -752 0
v -416 -752 0
v -432 -768 0
v -448 -768 0
v -448 -752 0
v -432 -752 0
v -448 -768 0
v -464 -768 0
v -464 -752 0
v -448 -752 0
v -464 -768 0
v -480 -768 0
v -480 -752 0
v -464 -752 0
v -480 -768 0
v -496 -768 0
v -496 -752 0
v -480 -752 0
v -496 -768 0
v -512 -768 0
v -512 -752 0
v -496 -752 0
v -512 -768 0
v -528 -768 0
v -528 -752 0
v -512 -752 0
v -432 -784 0
v -448 -784 0
v -448 -768 0
v -432 -768 0
v -448 -784 0
v -464 -784 0
v -464 -768 0
v -448 -768 0
v -464 -784 0
v -480 -784 0
v -480 -768 0
v -464 -768 0
v -480 -784 0
v -496 -784 0
v -496 -768 0
v -480 -768 0
v -496 -784 0
v -512 -784 0
v -512 -768 0
v -496 -768 0

# Texture cooridinates (Count = 68)
vt 0.1229339 0.6787072
vt 0.1394628 0.6787072
vt 0.1394628 0.7091255
vt 0.1229339 0.7091255
vt 0.1404959 0.6787072
vt 0.1570248 0.6787072
vt 0.1570248 0.7091255
vt 0.1404959 0.7091255
vt 0.1404959 0.6463878
vt 0.1570248 0.6463878
vt 0.1570248 0.6768061
vt 0.1404959 0.6768061
vt 0.1580579 0.6787072
vt 0.1745868 0.6787072
vt 0.1745868 0.7091255
vt 0.1580579 0.7091255
vt 0.1229339 0.6463878
vt 0.1394628 0.6463878
vt 0.1394628 0.6768061
vt 0.1229339 0.6768061
vt 0.1580579 0.6463878
vt 0.1745868 0.6463878
vt 0.1745868 0.6768061
vt 0.1580579 0.6768061
vt 0.1053719 0.6463878
vt 0.1219008 0.6463878
vt 0.1219008 0.6768061
vt 0.1053719 0.6768061
vt 0.1580579 0.6140684
vt 0.1745868 0.6140684
vt 0.1745868 0.6444867
vt 0.1580579 0.6444867
vt 0.1219008 0.7414448
vt 0.1053719 0.7414448
vt 0.1053719 0.7110266
vt 0.1219008 0.7110266
vt 0.1745868 0.7414448
vt 0.1580579 0.7414448
vt 0.1580579 0.7110266
vt 0.1745868 0.7110266
vt 0.1404959 0.743346
vt 0.1570248 0.743346
vt 0.1570248 0.7737643
vt 0.1404959 0.7737643
vt 0.1580579 0.743346
vt 0.1745868 0.743346
vt 0.1745868 0.7737643
vt 0.1580579 0.7737643
vt 0.1404959 0.6140684
vt 0.1570248 0.6140684
vt 0.1570248 0.6444867
vt 0.1404959 0.6444867
vt 0.08780992 0.6463878
vt 0.1043388 0.6463878
vt 0.1043388 0.6768061
vt 0.08780992 0.6768061
vt 0.1229339 0.6140684
vt 0.1394628 0.6140684
vt 0.1394628 0.6444867
vt 0.1229339 0.6444867
vt 0.1053719 0.6787072
vt 0.1219008 0.6787072
vt 0.1219008 0.7091255
vt 0.1053719 0.7091255
vt 0.08780992 0.6787072
vt 0.1043388 0.6787072
vt 0.1043388 0.7091255
vt 0.08780992 0.7091255

# Normal
vn 0 0 -1

# Mesh description
g Level1_mesh_0002

# Faces
f 1/1/1 2/2/1 3/3/1 4/4/1
f 5/5/1 6/6/1 7/7/1 8/8/1
f 9/5/1 10/6/1 11/7/1 12/8/1
f 13/5/1 14/6/1 15/7/1 16/8/1
f 17/9/1 18/10/1 19/11/1 20/12/1
f 21/5/1 22/6/1 23/7/1 24/8/1
f 25/5/1 26/6/1 27/7/1 28/8/1
f 29/5/1 30/6/1 31/7/1 32/8/1
f 33/13/1 34/14/1 35/15/1 36/16/1
f 37/17/1 38/18/1 39/19/1 40/20/1
f 41/9/1 42/10/1 43/11/1 44/12/1
f 45/9/1 46/10/1 47/11/1 48/12/1
f 49/9/1 50/10/1 51/11/1 52/12/1
f 53/9/1 54/10/1 55/11/1 56/12/1
f 57/9/1 58/10/1 59/11/1 60/12/1
f 61/9/1 62/10/1 63/11/1 64/12/1
f 65/9/1 66/10/1 67/11/1 68/12/1
f 69/9/1 70/10/1 71/11/1 72/12/1
f 73/9/1 74/10/1 75/11/1 76/12/1
f 77/21/1 78/22/1 79/23/1 80/24/1
f 81/17/1 82/18/1 83/19/1 84/20/1
f 85/9/1 86/10/1 87/11/1 88/12/1
f 89/25/1 90/26/1 91/27/1 92/28/1
f 93/9/1 94/10/1 95/11/1 96/12/1
f 97/29/1 98/30/1 99/31/1 100/32/1
f 101/33/1 102/34/1 103/35/1 104/36/1
f 105/37/1 106/38/1 107/39/1 108/40/1
f 109/37/1 110/38/1 111/39/1 112/40/1
f 113/41/1 114/42/1 115/43/1 116/44/1
f 117/17/1 118/18/1 119/19/1 120/20/1
f 121/9/1 122/10/1 123/11/1 124/12/1
f 125/25/1 126/26/1 127/27/1 128/28/1
f 129/45/1 130/46/1 131/47/1 132/48/1
f 133/17/1 134/18/1 135/19/1 136/20/1
f 137/9/1 138/10/1 139/11/1 140/12/1
f 141/25/1 142/26/1 143/27/1 144/28/1
f 145/45/1 146/46/1 147/47/1 148/48/1
f 149/17/1 150/18/1 151/19/1 152/20/1
f 153/9/1 154/10/1 155/11/1 156/12/1
f 157/25/1 158/26/1 159/27/1 160/28/1
f 161/45/1 162/46/1 163/47/1 164/48/1
f 165/17/1 166/18/1 167/19/1 168/20/1
f 169/9/1 170/10/1 171/11/1 172/12/1
f 173/25/1 174/26/1 175/27/1 176/28/1
f 177/45/1 178/46/1 179/47/1 180/48/1
f 181/45/1 182/46/1 183/47/1 184/48/1
f 185/17/1 186/18/1 187/19/1 188/20/1
f 189/9/1 190/10/1 191/11/1 192/12/1
f 193/25/1 194/26/1 195/27/1 196/28/1
f 197/45/1 198/46/1 199/47/1 200/48/1
f 201/45/1 202/46/1 203/47/1 204/48/1
f 205/17/1 206/18/1 207/19/1 208/20/1
f 209/9/1 210/10/1 211/11/1 212/12/1
f 213/25/1 214/26/1 215/27/1 216/28/1
f 217/45/1 218/46/1 219/47/1 220/48/1
f 221/45/1 222/46/1 223/47/1 224/48/1
f 225/45/1 226/46/1 227/47/1 228/48/1
f 229/9/1 230/10/1 231/11/1 232/12/1
f 233/9/1 234/10/1 235/11/1 236/12/1
f 237/9/1 238/10/1 239/11/1 240/12/1
f 241/25/1 242/26/1 243/27/1 244/28/1
f 245/25/1 246/26/1 247/27/1 248/28/1
f 249/25/1 250/26/1 251/27/1 252/28/1
f 253/25/1 254/26/1 255/27/1 256/28/1
f 257/9/1 258/10/1 259/11/1 260/12/1
f 261/5/1 262/6/1 263/7/1 264/8/1
f 265/5/1 266/6/1 267/7/1 268/8/1
f 269/5/1 270/6/1 271/7/1 272/8/1
f 273/5/1 274/6/1 275/7/1 276/8/1
f 277/5/1 278/6/1 279/7/1 280/8/1
f 281/5/1 282/6/1 283/7/1 284/8/1
f 285/5/1 286/6/1 287/7/1 288/8/1
f 289/5/1 290/6/1 291/7/1 292/8/1
f 293/39/1 294/40/1 295/37/1 296/38/1
f 297/39/1 298/40/1 299/37/1 300/38/1
f 301/39/1 302/40/1 303/37/1 304/38/1
f 305/35/1 306/36/1 307/33/1 308/34/1
f 309/39/1 310/40/1 311/37/1 312/38/1
f 313/39/1 314/40/1 315/37/1 316/38/1
f 317/39/1 318/40/1 319/37/1 320/38/1
f 321/39/1 322/40/1 323/37/1 324/38/1
f 325/17/1 326/18/1 327/19/1 328/20/1
f 329/9/1 330/10/1 331/11/1 332/12/1
f 333/9/1 334/10/1 335/11/1 336/12/1
f 337/9/1 338/10/1 339/11/1 340/12/1
f 341/9/1 342/10/1 343/11/1 344/12/1
f 345/9/1 346/10/1 347/11/1 348/12/1
f 349/25/1 350/26/1 351/27/1 352/28/1
f 353/9/1 354/10/1 355/11/1 356/12/1
f 357/9/1 358/10/1 359/11/1 360/12/1
f 361/9/1 362/10/1 363/11/1 364/12/1
f 365/9/1 366/10/1 367/11/1 368/12/1
f 369/9/1 370/10/1 371/11/1 372/12/1
f 373/9/1 374/10/1 375/11/1 376/12/1
f 377/9/1 378/10/1 379/11/1 380/12/1
f 381/9/1 382/10/1 383/11/1 384/12/1
f 385/21/1 386/22/1 387/23/1 388/24/1
f 389/17/1 390/18/1 391/19/1 392/20/1
f 393/9/1 394/10/1 395/11/1 396/12/1
f 397/9/1 398/10/1 399/11/1 400/12/1
f 401/9/1 402/10/1 403/11/1 404/12/1
f 405/9/1 406/10/1 407/11/1 408/12/1
f 409/9/1 410/10/1 411/11/1 412/12/1
f 413/9/1 414/10/1 415/11/1 416/12/1
f 417/9/1 418/10/1 419/11/1 420/12/1
f 421/9/1 422/10/1 423/11/1 424/12/1
f 425/9/1 426/10/1 427/11/1 428/12/1
f 429/9/1 430/10/1 431/11/1 432/12/1
f 433/9/1 434/10/1 435/11/1 436/12/1
f 437/49/1 438/50/1 439/51/1 440/52/1
f 441/49/1 442/50/1 443/51/1 444/52/1
f 445/49/1 446/50/1 447/51/1 448/52/1
f 449/29/1 450/30/1 451/31/1 452/32/1
f 453/17/1 454/18/1 455/19/1 456/20/1
f 457/9/1 458/10/1 459/11/1 460/12/1
f 461/9/1 462/10/1 463/11/1 464/12/1
f 465/9/1 466/10/1 467/11/1 468/12/1
f 469/9/1 470/10/1 471/11/1 472/12/1
f 473/9/1 474/10/1 475/11/1 476/12/1
f 477/9/1 478/10/1 479/11/1 480/12/1
f 481/9/1 482/10/1 483/11/1 484/12/1
f 485/9/1 486/10/1 487/11/1 488/12/1
f 489/9/1 490/10/1 491/11/1 492/12/1
f 493/9/1 494/10/1 495/11/1 496/12/1
f 497/18/1 498/17/1 499/20/1 500/19/1
f 501/17/1 502/18/1 503/19/1 504/20/1
f 505/9/1 506/10/1 507/11/1 508/12/1
f 509/9/1 510/10/1 511/11/1 512/12/1
f 513/9/1 514/10/1 515/11/1 516/12/1
f 517/9/1 518/10/1 519/11/1 520/12/1
f 521/9/1 522/10/1 523/11/1 524/12/1
f 525/9/1 526/10/1 527/11/1 528/12/1
f 529/9/1 530/10/1 531/11/1 532/12/1
f 533/9/1 534/10/1 535/11/1 536/12/1
f 537/53/1 538/54/1 539/55/1 540/56/1
f 541/9/1 542/10/1 543/11/1 544/12/1
f 545/21/1 546/22/1 547/23/1 548/24/1
f 549/17/1 550/18/1 551/19/1 552/20/1
f 553/9/1 554/10/1 555/11/1 556/12/1
f 557/9/1 558/10/1 559/11/1 560/12/1
f 561/9/1 562/10/1 563/11/1 564/12/1
f 565/25/1 566/26/1 567/27/1 568/28/1
f 569/9/1 570/10/1 571/11/1 572/12/1
f 573/9/1 574/10/1 575/11/1 576/12/1
f 577/9/1 578/10/1 579/11/1 580/12/1
f 581/9/1 582/10/1 583/11/1 584/12/1
f 585/9/1 586/10/1 587/11/1 588/12/1
f 589/9/1 590/10/1 591/11/1 592/12/1
f 593/21/1 594/22/1 595/23/1 596/24/1
f 597/17/1 598/18/1 599/19/1 600/20/1
f 601/9/1 602/10/1 603/11/1 604/12/1
f 605/9/1 606/10/1 607/11/1 608/12/1
f 609/9/1 610/10/1 611/11/1 612/12/1
f 613/9/1 614/10/1 615/11/1 616/12/1
f 617/9/1 618/10/1 619/11/1 620/12/1
f 621/9/1 622/10/1 623/11/1 624/12/1
f 625/9/1 626/10/1 627/11/1 628/12/1
f 629/9/1 630/10/1 631/11/1 632/12/1
f 633/9/1 634/10/1 635/11/1 636/12/1
f 637/49/1 638/50/1 639/51/1 640/52/1
f 641/29/1 642/30/1 643/31/1 644/32/1
f 645/57/1 646/58/1 647/59/1 648/60/1
f 649/49/1 650/50/1 651/51/1 652/52/1
f 653/9/1 654/10/1 655/11/1 656/12/1
f 657/49/1 658/50/1 659/51/1 660/52/1
f 661/61/1 662/62/1 663/63/1 664/64/1
f 665/9/1 666/10/1 667/11/1 668/12/1
f 669/9/1 670/10/1 671/11/1 672/12/1
f 673/9/1 674/10/1 675/11/1 676/12/1
f 677/65/1 678/66/1 679/67/1 680/68/1
f 681/29/1 682/30/1 683/31/1 684/32/1
f 685/57/1 686/58/1 687/59/1 688/60/1
f 689/49/1 690/50/1 691/51/1 692/52/1
f 693/49/1 694/50/1 695/51/1 696/52/1
f 697/49/1 698/50/1 699/51/1 700/52/1
f 701/29/1 702/30/1 703/31/1 704/32/1

