# Tiled2Unity generated file. Do not modify by hand.
# Wavefront file for 'Level1_mesh_0004.obj'

# Vertices (Count = 140)
v -416 -480 0
v -432 -480 0
v -432 -464 0
v -416 -464 0
v -432 -480 0
v -448 -480 0
v -448 -464 0
v -432 -464 0
v -416 -496 0
v -432 -496 0
v -432 -480 0
v -416 -480 0
v -432 -496 0
v -448 -496 0
v -448 -480 0
v -432 -480 0
v -528 -544 0
v -544 -544 0
v -544 -528 0
v -528 -528 0
v -544 -544 0
v -560 -544 0
v -560 -528 0
v -544 -528 0
v -560 -544 0
v -576 -544 0
v -576 -528 0
v -560 -528 0
v -528 -560 0
v -544 -560 0
v -544 -544 0
v -528 -544 0
v -544 -560 0
v -560 -560 0
v -560 -544 0
v -544 -544 0
v -560 -560 0
v -576 -560 0
v -576 -544 0
v -560 -544 0
v -416 -576 0
v -432 -576 0
v -432 -560 0
v -416 -560 0
v -432 -576 0
v -448 -576 0
v -448 -560 0
v -432 -560 0
v -448 -576 0
v -464 -576 0
v -464 -560 0
v -448 -560 0
v -528 -576 0
v -544 -576 0
v -544 -560 0
v -528 -560 0
v -544 -576 0
v -560 -576 0
v -560 -560 0
v -544 -560 0
v -560 -576 0
v -576 -576 0
v -576 -560 0
v -560 -560 0
v -416 -592 0
v -432 -592 0
v -432 -576 0
v -416 -576 0
v -432 -592 0
v -448 -592 0
v -448 -576 0
v -432 -576 0
v -448 -592 0
v -464 -592 0
v -464 -576 0
v -448 -576 0
v -528 -592 0
v -544 -592 0
v -544 -576 0
v -528 -576 0
v -544 -592 0
v -560 -592 0
v -560 -576 0
v -544 -576 0
v -560 -592 0
v -576 -592 0
v -576 -576 0
v -560 -576 0
v -416 -608 0
v -432 -608 0
v -432 -592 0
v -416 -592 0
v -432 -608 0
v -448 -608 0
v -448 -592 0
v -432 -592 0
v -448 -608 0
v -464 -608 0
v -464 -592 0
v -448 -592 0
v -464 -608 0
v -480 -608 0
v -480 -592 0
v -464 -592 0
v -480 -608 0
v -496 -608 0
v -496 -592 0
v -480 -592 0
v -496 -608 0
v -512 -608 0
v -512 -592 0
v -496 -592 0
v -416 -624 0
v -432 -624 0
v -432 -608 0
v -416 -608 0
v -432 -624 0
v -448 -624 0
v -448 -608 0
v -432 -608 0
v -448 -624 0
v -464 -624 0
v -464 -608 0
v -448 -608 0
v -464 -624 0
v -480 -624 0
v -480 -608 0
v -464 -608 0
v -480 -624 0
v -496 -624 0
v -496 -608 0
v -480 -608 0
v -496 -624 0
v -512 -624 0
v -512 -608 0
v -496 -608 0
v -544 -656 0
v -560 -656 0
v -560 -640 0
v -544 -640 0

# Texture cooridinates (Count = 52)
vt 0.2985537 0.4847909
vt 0.3150826 0.4847909
vt 0.3150826 0.5152091
vt 0.2985537 0.5152091
vt 0.3336777 0.4847909
vt 0.3502066 0.4847909
vt 0.3502066 0.5152091
vt 0.3336777 0.5152091
vt 0.2458678 0.4847909
vt 0.2623967 0.4847909
vt 0.2623967 0.5152091
vt 0.2458678 0.5152091
vt 0.2809917 0.4847909
vt 0.2975207 0.4847909
vt 0.2975207 0.5152091
vt 0.2809917 0.5152091
vt 0.4214876 0.2908745
vt 0.4380165 0.2908745
vt 0.4380165 0.3212928
vt 0.4214876 0.3212928
vt 0.4390496 0.2908745
vt 0.4555785 0.2908745
vt 0.4555785 0.3212928
vt 0.4390496 0.3212928
vt 0.4566116 0.2908745
vt 0.4731405 0.2908745
vt 0.4731405 0.3212928
vt 0.4566116 0.3212928
vt 0.3161157 0.4847909
vt 0.3326446 0.4847909
vt 0.3326446 0.5152091
vt 0.3161157 0.5152091
vt 0.3336777 0.3231939
vt 0.3502066 0.3231939
vt 0.3502066 0.3536122
vt 0.3336777 0.3536122
vt 0.2809917 0.3231939
vt 0.2975207 0.3231939
vt 0.2975207 0.3536122
vt 0.2809917 0.3536122
vt 0.2283058 0.4847909
vt 0.2448347 0.4847909
vt 0.2448347 0.5152091
vt 0.2283058 0.5152091
vt 0.2985537 0.3231939
vt 0.3150826 0.3231939
vt 0.3150826 0.3536122
vt 0.2985537 0.3536122
vt 0.08780992 0.6787072
vt 0.1043388 0.6787072
vt 0.1043388 0.7091255
vt 0.08780992 0.7091255

# Normal
vn 0 0 -1

# Mesh description
g Level1_mesh_0004

# Faces
f 1/1/1 2/2/1 3/3/1 4/4/1
f 5/5/1 6/6/1 7/7/1 8/8/1
f 9/9/1 10/10/1 11/11/1 12/12/1
f 13/13/1 14/14/1 15/15/1 16/16/1
f 17/17/1 18/18/1 19/19/1 20/20/1
f 21/21/1 22/22/1 23/23/1 24/24/1
f 25/25/1 26/26/1 27/27/1 28/28/1
f 29/29/1 30/30/1 31/31/1 32/32/1
f 33/29/1 34/30/1 35/31/1 36/32/1
f 37/29/1 38/30/1 39/31/1 40/32/1
f 41/29/1 42/30/1 43/31/1 44/32/1
f 45/29/1 46/30/1 47/31/1 48/32/1
f 49/29/1 50/30/1 51/31/1 52/32/1
f 53/1/1 54/2/1 55/3/1 56/4/1
f 57/29/1 58/30/1 59/31/1 60/32/1
f 61/5/1 62/6/1 63/7/1 64/8/1
f 65/1/1 66/2/1 67/3/1 68/4/1
f 69/33/1 70/34/1 71/35/1 72/36/1
f 73/5/1 74/6/1 75/7/1 76/8/1
f 77/9/1 78/10/1 79/11/1 80/12/1
f 81/29/1 82/30/1 83/31/1 84/32/1
f 85/13/1 86/14/1 87/15/1 88/16/1
f 89/1/1 90/2/1 91/3/1 92/4/1
f 93/29/1 94/30/1 95/31/1 96/32/1
f 97/29/1 98/30/1 99/31/1 100/32/1
f 101/29/1 102/30/1 103/31/1 104/32/1
f 105/29/1 106/30/1 107/31/1 108/32/1
f 109/5/1 110/6/1 111/7/1 112/8/1
f 113/37/1 114/38/1 115/39/1 116/40/1
f 117/41/1 118/42/1 119/43/1 120/44/1
f 121/41/1 122/42/1 123/43/1 124/44/1
f 125/45/1 126/46/1 127/47/1 128/48/1
f 129/29/1 130/30/1 131/31/1 132/32/1
f 133/13/1 134/14/1 135/15/1 136/16/1
f 137/49/1 138/50/1 139/51/1 140/52/1

